<svg width="40" height="28" viewBox="0 0 40 28" fill="none" xmlns="http://www.w3.org/2000/svg">
<path d="M20 2.33544e-10C20.004 2.15184e-08 32.5088 -0.000201148 35.627 0.835938C37.349 1.29691 38.7031 2.65002 39.1641 4.37207C39.9944 7.48001 40 13.9574 40 14C40 14 40.0004 20.5096 39.1641 23.6279C38.7032 25.35 37.349 26.7032 35.627 27.1641C32.509 28.0003 20.004 28.001 20 28.001C20 28.001 7.49156 28.0004 4.37305 27.1641C2.65096 26.7032 1.29692 25.35 0.835938 23.6279C-0.000317554 20.5095 1.82884e-10 14 1.82884e-10 14C9.0336e-06 13.9574 0.00233654 7.48001 0.835938 4.37207C1.29694 2.65001 2.65099 1.29691 4.37305 0.835938C7.49172 -0.000344542 20 2.33544e-10 20 2.33544e-10ZM16 20L26.3916 14.001L16 8.00195V20Z" fill="#001427"/>
</svg>
