<svg width="108" height="65" viewBox="0 0 108 65" fill="none" xmlns="http://www.w3.org/2000/svg">
<path d="M77.7575 43.9041H72.9883L72.2637 45.382H71.1387L74.5896 38.4019H76.0803L79.6002 45.382H78.4891L77.7575 43.9041ZM77.4469 43.3109L75.3557 39.0462L73.292 43.3109H77.4469Z" fill="#001427"/>
<path d="M66.1879 38.4019V45.382H65.125V38.4019H66.1879Z" fill="#001427"/>
<path d="M51.9336 45.382V38.4019H56.2955C57.6437 38.4019 58.557 38.6217 59.0355 39.0615C59.514 39.5013 59.7533 40.3433 59.7533 41.5877C59.7533 43.1013 59.5393 44.1121 59.1114 44.62C58.6881 45.128 57.8392 45.382 56.5647 45.382H51.9336ZM52.9965 44.7172H56.0678C57.195 44.7172 57.922 44.5502 58.2487 44.2161C58.5754 43.882 58.7387 43.1371 58.7387 41.9814C58.7387 40.7132 58.5961 39.9104 58.3108 39.5729C58.0302 39.2354 57.3538 39.0666 56.2817 39.0666H52.9965V44.7172Z" fill="#001427"/>
<path d="M41.6176 39.0666V41.4445H46.4005V42.1092H41.6176V44.7172H46.6075V45.382H40.5547V38.4019H46.6075V39.0666H41.6176Z" fill="#001427"/>
<path d="M35.1826 38.4019V45.382H34.1197V39.7979V39.3786L34.1266 39.1689L34.1335 38.9592H34.1059L34.0231 39.1229C33.9817 39.2047 33.9541 39.2575 33.9403 39.2814L33.7608 39.6087L30.5515 45.382H29.4886L26.2724 39.6752L26.0861 39.353L26.0032 39.1894C25.9802 39.1519 25.9526 39.099 25.9204 39.0308H25.8928L25.8997 39.22L25.9066 39.4144V39.7979V45.382H24.8438V38.4019H26.6865L29.1988 42.9172L29.5991 43.6484L29.7992 44.0115L29.9925 44.3746H30.0201L30.2133 44.0115C30.31 43.8377 30.3744 43.7166 30.4066 43.6484L30.8138 42.9223L33.3122 38.4019H35.1826Z" fill="#001427"/>
<path d="M76.3541 38.1108L76.4492 38.3L79.9691 45.2802L80.1678 45.6728H78.2161L77.4845 44.1949H73.2652L72.6341 45.4813L72.5405 45.6728H70.5781L74.3166 38.1108H76.3541ZM74.5911 38.4017L71.1402 45.3819H72.2652L72.9899 43.904H77.759L78.4906 45.3819H79.6018L76.0819 38.4017H74.5911ZM77.4485 43.3108H73.2936L75.3572 39.0461L77.4485 43.3108ZM73.8519 43.0199H76.8879L75.3595 39.9029L73.8519 43.0199Z" fill="#001427"/>
<path d="M66.1879 38.4017H65.1251V45.3819H66.1879V38.4017ZM66.5806 45.6728H64.7324V38.1108H66.5806V45.6728Z" fill="#001427"/>
<path d="M59.7534 41.5875C59.7534 40.4208 59.5429 39.6077 59.1222 39.1483L59.0356 39.0614C58.587 38.6491 57.7562 38.4304 56.5433 38.4046L56.2956 38.4017V38.1108C57.6755 38.1108 58.7472 38.3328 59.3416 38.879C59.6346 39.1484 59.8318 39.5187 59.9581 39.9631C60.0852 40.4104 60.146 40.9535 60.146 41.5875C60.146 42.353 60.0916 43.0006 59.9803 43.5262C59.8703 44.0457 59.6994 44.4696 59.4451 44.7722C58.9154 45.4078 57.8922 45.6728 56.5647 45.6728H51.541V38.1108H56.2956V38.4017H51.9336V45.3819H56.5647L56.7986 45.379C57.9436 45.3493 58.7146 45.0961 59.1115 44.6199C59.4859 44.1755 59.6966 43.3461 59.7434 42.1319L59.7534 41.5875ZM58.3462 41.9813C58.3462 41.3537 58.3108 40.8498 58.2426 40.466C58.1726 40.072 58.0733 39.8401 57.9781 39.7273L57.9765 39.7256C57.8983 39.6316 57.7484 39.5388 57.4681 39.4688C57.1852 39.3982 56.7944 39.3574 56.2818 39.3574H53.3892V44.4262H56.0678V44.7171H52.9965V39.0665H56.2818C57.3538 39.0665 58.0302 39.2353 58.3109 39.5728C58.5961 39.9103 58.7388 40.7131 58.7388 41.9813L58.7311 42.3955C58.6954 43.3168 58.5346 43.9236 58.2488 44.216L58.1828 44.2767C57.8296 44.5703 57.1246 44.7171 56.0678 44.7171V44.4262C56.609 44.4262 57.0299 44.3855 57.3423 44.3137C57.6536 44.2421 57.8324 44.1457 57.9305 44.0455C58.0392 43.9343 58.1501 43.7191 58.2288 43.3603C58.3058 43.0091 58.3462 42.5508 58.3462 41.9813Z" fill="#001427"/>
<path d="M46.6096 44.7171H41.6196V42.1091H46.4025V41.4444H41.6196V39.0665H46.6096V38.4017H40.5567V45.3819H46.6096V44.7171ZM47.0022 39.3574H42.0122V41.1535H46.7951V42.4H42.0122V44.4262H47.0022V45.6728H40.1641V38.1108H47.0022V39.3574Z" fill="#001427"/>
<path d="M35.1827 38.4017H33.3123L30.8138 42.9222L30.4066 43.6483L30.0201 44.3745H29.9925L29.7993 44.0114L29.5991 43.6483L29.1988 42.9171L26.6866 38.4017H24.8438V45.3819H25.9067V39.4142L25.8929 39.0307H25.9205C25.9527 39.0989 25.9803 39.1517 26.0033 39.1892L26.0861 39.3529L26.2725 39.675L29.4887 45.3819H30.5516L33.7609 39.6086L33.9403 39.2813C33.9541 39.2574 33.9818 39.2046 34.0232 39.1228L34.106 38.9591H34.1336L34.1198 39.3785V45.3819H35.1827V38.4017ZM35.5753 45.6728H33.7272V40.4324L30.9143 45.4927L30.8146 45.6728H29.2272L29.1267 45.4938L26.2993 40.4767V45.6728H24.4512V38.1108H26.9496L27.0493 38.291L29.5616 42.8063L29.5623 42.808L29.9619 43.5381L30.0033 43.6125C30.0158 43.5881 30.0286 43.5686 30.0362 43.5523L30.0401 43.5444L30.0439 43.537L30.4511 42.8108L33.0485 38.1108H35.5753V45.6728Z" fill="#001427"/>
<path d="M0.000284092 61.0361L2.87926 53.5395H3.94801L7.01619 61.0361H5.88608L5.01165 58.7657H1.87699L1.05369 61.0361H0.000284092ZM2.16335 57.9577H4.70483L3.92244 55.8816C3.68381 55.2509 3.50653 54.7327 3.39062 54.327C3.29517 54.8077 3.16051 55.285 2.98665 55.7589L2.16335 57.9577ZM15.6605 53.5395H16.6525V57.8708C16.6525 58.6242 16.5673 59.2225 16.3969 59.6657C16.2264 60.1089 15.9179 60.4702 15.4713 60.7498C15.0281 61.0259 14.4451 61.164 13.7224 61.164C13.0201 61.164 12.4457 61.043 11.9991 60.8009C11.5525 60.5589 11.2338 60.2094 11.0429 59.7526C10.852 59.2924 10.7565 58.6651 10.7565 57.8708V53.5395H11.7486V57.8657C11.7486 58.5168 11.8082 58.9975 11.9275 59.3077C12.0503 59.6145 12.2582 59.8515 12.5514 60.0185C12.848 60.1856 13.2094 60.2691 13.6355 60.2691C14.365 60.2691 14.8849 60.1037 15.1951 59.7731C15.5054 59.4424 15.6605 58.8066 15.6605 57.8657V53.5395ZM23.3843 61.0361L20.4798 53.5395H21.5536L23.5019 58.9856C23.6588 59.4219 23.79 59.831 23.8957 60.2128C24.0116 59.8037 24.1463 59.3947 24.2997 58.9856L26.3247 53.5395H27.3372L24.4019 61.0361H23.3843ZM31.3281 61.0361V53.5395H32.3201V61.0361H31.3281ZM36.9758 61.0361V53.5395H38.4689L40.2434 58.8475C40.407 59.3418 40.5263 59.7117 40.6013 59.9572C40.6866 59.6844 40.8195 59.2839 41.0002 58.7555L42.7951 53.5395H44.1297V61.0361H43.1735V54.7617L40.9951 61.0361H40.1002L37.932 54.6543V61.0361H36.9758ZM48.6831 61.0361V53.5395H54.1036V54.4242H49.6752V56.7202H53.8223V57.5998H49.6752V60.1515H54.2774V61.0361H48.6831ZM58.5803 61.0361V53.5395H61.1626C61.7456 53.5395 62.1905 53.5753 62.4973 53.6469C62.9268 53.7458 63.2933 53.9248 63.5967 54.1839C63.9922 54.518 64.2871 54.9458 64.4814 55.4674C64.6791 55.9856 64.778 56.5787 64.778 57.2469C64.778 57.8162 64.7115 58.3208 64.5786 58.7606C64.4456 59.2003 64.2751 59.5651 64.0672 59.8549C63.8592 60.1412 63.6308 60.368 63.382 60.535C63.1365 60.6986 62.8382 60.8231 62.4871 60.9083C62.1393 60.9935 61.7388 61.0361 61.2854 61.0361H58.5803ZM59.5723 60.1515H61.1729C61.6672 60.1515 62.0541 60.1055 62.3337 60.0134C62.6166 59.9214 62.8416 59.7918 63.0087 59.6248C63.2439 59.3895 63.4263 59.0742 63.5558 58.6787C63.6888 58.2799 63.7553 57.7975 63.7553 57.2316C63.7553 56.4475 63.6257 55.8458 63.3666 55.4265C63.1109 55.0037 62.799 54.7208 62.4308 54.5776C62.1649 54.4753 61.7371 54.4242 61.1473 54.4242H59.5723V60.1515ZM69.2496 61.0361V53.5395H70.2416V61.0361H69.2496ZM74.1046 61.0361L76.9836 53.5395H78.0524L81.1206 61.0361H79.9904L79.116 58.7657H75.9814L75.1581 61.0361H74.1046ZM76.2677 57.9577H78.8092L78.0268 55.8816C77.7882 55.2509 77.6109 54.7327 77.495 54.327C77.3995 54.8077 77.2649 55.285 77.091 55.7589L76.2677 57.9577ZM84.9887 61.0361V59.9878H86.037V61.0361H84.9887ZM90.6824 61.0361V53.5395H91.7001L95.6376 59.4253V53.5395H96.5887V61.0361H95.5711L91.6336 55.1452V61.0361H90.6824ZM101.152 61.0361V53.5395H102.144V60.1515H105.836V61.0361H101.152Z" fill="#001427"/>
<rect x="83.752" y="56.3999" width="4.65455" height="4.65455" fill="#001427"/>
<path d="M29.9795 6.40023V33.1639H25.3249V10.7832C17.9752 11.1286 13.1844 14.4948 10.1573 18.6872C6.84925 23.2687 5.63898 28.8512 5.54311 32.5894L5.53572 32.873H0.597656V32.582C0.597656 22.2435 5.05876 15.6604 10.646 11.6474C16.219 7.64462 22.8981 6.20727 27.355 6.10932L29.9795 6.10303V6.40023Z" fill="#001427"/>
<path d="M60.5244 32.8664L60.5244 6.10274L55.8699 6.10274L55.8699 28.4834C48.5201 28.138 43.7293 24.7718 40.7022 20.5794C37.3942 15.9979 36.1839 10.4154 36.088 6.67717L36.0806 6.39365L31.1426 6.39365L31.1426 6.68456C31.1426 17.0231 35.6037 23.6062 41.1909 27.6192C46.7639 31.622 53.4431 33.0593 57.9 33.1573L60.5244 33.1636L60.5244 32.8664Z" fill="#001427"/>
<path d="M70.124 32.8664V6.10274H74.7786V28.4834C82.1283 28.1381 86.9191 24.7718 89.9462 20.5794C93.2543 15.9979 94.4645 10.4154 94.5604 6.67717L94.5678 6.39365H99.5059V6.68456C99.5059 17.0231 95.0448 23.6062 89.4576 27.6192C83.8846 31.622 77.2054 33.0593 72.7485 33.1573L70.124 33.1636V32.8664Z" fill="#001427"/>
<path d="M100.67 32.8664V6.10274H105.325V28.4834C105.324 31.1272 105.328 31.4181 105.325 33.1573L100.67 33.1636V32.8664Z" fill="#001427"/>
<rect x="15.4336" y="21.5273" width="4.65455" height="4.65455" fill="#001427"/>
<rect x="63.1426" y="28.5093" width="4.65455" height="4.65455" rx="2.32727" fill="#001427"/>
<rect x="100.67" width="4.65455" height="4.65455" fill="#001427"/>
<rect x="0.597656" y="48.291" width="104.727" height="1.16364" fill="#001427"/>
</svg>
