<svg width="298" height="64" viewBox="0 0 298 64" fill="none" xmlns="http://www.w3.org/2000/svg">
<path d="M32.2422 11.292C33.9224 11.2921 35.2141 11.8938 36.1172 13.0977C36.8444 14.0506 37.208 15.2052 37.208 16.5596C37.2079 18.9923 36.3929 21.7639 34.7627 24.874C33.333 27.5575 31.5518 29.965 29.4199 32.0967C28.0155 33.4763 26.9121 34.166 26.1094 34.166C25.5828 34.166 25.0941 33.9025 24.6426 33.376C24.3166 32.9995 24.1533 32.5732 24.1533 32.0967C24.1534 31.2492 24.8667 30.2844 26.293 29.2031L26.4482 29.0869C28.6051 27.4816 30.3232 25.7263 31.6025 23.8203C33.4836 21.0612 34.4238 18.7285 34.4238 16.8223C34.4238 16.0449 34.2547 15.468 33.916 15.0918C33.5776 14.7156 33.0696 14.5274 32.3926 14.5273C31.0517 14.5273 29.1647 15.4755 26.7334 17.3721L26.5234 17.5371C23.6393 19.7944 20.5922 22.8673 17.3818 26.7549C13.2936 31.6957 10.1827 36.5611 8.05078 41.3516C5.84379 46.3179 4.74023 50.557 4.74023 54.0684C4.74028 55.7486 5.2299 57.1784 6.20801 58.3574C7.28642 59.6863 8.60333 60.3506 10.1582 60.3506C12.8668 60.3505 16.2784 58.244 20.3916 54.0303C21.6204 52.7512 23.1124 50.8946 24.8682 48.4619L25.1367 48.0977C26.1372 46.7334 26.7881 45.7513 27.0879 45.1514C27.464 44.4244 27.9029 44.0607 28.4043 44.0605C28.9559 44.0605 29.2324 44.324 29.2324 44.8506C29.2324 45.9791 27.8277 48.5126 25.0186 52.4502C22.686 55.7359 20.1148 58.4191 17.3057 60.501C14.1456 62.8335 11.1607 64 8.35156 64C5.41734 63.9999 3.14796 62.6831 1.54297 60.0498C0.514561 58.3692 2.9946e-05 56.4508 0 54.2939C0 48.8763 2.55839 42.0416 7.6748 33.79C12.039 26.7673 16.6417 21.1112 21.4824 16.8223C25.6709 13.1355 29.2575 11.292 32.2422 11.292ZM67.1172 10.8779C67.7691 10.8779 68.334 11.1414 68.8105 11.668C69.2117 12.1444 69.412 12.6713 69.4121 13.248C69.4121 13.9503 69.0609 15.1799 68.3584 16.9355C67.1546 20.0205 66.0009 23.3188 64.8975 26.8301L64.7051 27.4629C63.8578 30.2651 63.2821 32.4374 62.9785 33.9785L63.21 33.9766C63.5344 33.9727 63.7586 33.9606 63.8818 33.9404L64.5674 33.9199C64.9965 33.9086 65.37 33.9023 65.6875 33.9023C67.1422 33.9023 67.8691 34.4549 67.8691 35.5586C67.869 36.035 67.7128 36.5051 67.3994 36.9688C67.112 37.394 66.7878 37.6665 66.4268 37.7861L66.3271 37.8154C66.1865 37.8621 65.8167 37.8877 65.2178 37.8906L64.623 37.8936C63.424 37.9109 62.512 37.9984 61.8877 38.1543L61.8301 38.3291C61.2258 40.2219 60.2918 44.7158 59.0283 51.8105L58.7783 53.6396C58.271 57.4315 58.0289 59.8069 58.0508 60.7646C58.0508 62.5706 57.5111 63.4736 56.4326 63.4736C55.5799 63.4736 54.915 63.0349 54.4385 62.1572C54.0872 61.5553 53.9121 60.7391 53.9121 59.7109C53.9122 56.3322 54.4981 51.8059 55.6689 46.1328L56.4189 42.5469C56.7216 41.079 56.9649 39.8656 57.1475 38.9062C51.4542 40.035 46.6889 41.3648 42.8516 42.8945C40.544 46.2803 38.0108 50.3435 35.252 55.084L33.0547 58.9404C32.7107 59.537 32.2386 60.3204 31.6396 61.291C30.8371 62.6704 29.997 63.3604 29.1191 63.3604C28.6426 63.3603 28.241 63.1721 27.915 62.7959C27.5893 62.47 27.4268 62.1064 27.4268 61.7051C27.4269 61.0027 28.3673 59.0091 30.248 55.7236L30.6729 54.9971C31.4989 53.5977 32.5906 51.8262 33.9473 49.6816L35.375 47.4365C35.9649 46.5055 36.451 45.7183 36.832 45.0762C35.3273 45.5025 33.9475 45.9923 32.6934 46.5439C32.0915 46.8201 31.5897 46.958 31.1885 46.958C30.6868 46.958 30.2984 46.7316 30.0225 46.2803C29.8218 46.0046 29.7207 45.678 29.7207 45.3018C29.7208 44.4492 30.0222 43.8473 30.624 43.4961C31.6024 42.8942 33.3579 42.2042 35.8906 41.4268L36.5039 41.2285C38.0994 40.7036 39.3874 40.2173 40.3682 39.7715L40.624 39.4434C41.2105 38.6731 42.3136 37.1375 43.9316 34.835L44.6064 33.874C45.6397 32.4205 48.3151 29.2072 52.6328 24.2344C55.629 20.7232 58.7128 17.4411 61.8838 14.3887L62.5654 13.7373C64.5465 11.8315 66.0638 10.878 67.1172 10.8779ZM131.714 10.8779C132.366 10.8779 132.931 11.1414 133.407 11.668C133.808 12.1444 134.009 12.6713 134.009 13.248C134.009 13.9503 133.657 15.1799 132.955 16.9355C131.751 20.0205 130.598 23.3188 129.494 26.8301L129.302 27.4629C128.455 30.2651 127.879 32.4374 127.575 33.9785L127.807 33.9766C128.131 33.9727 128.355 33.9606 128.479 33.9404L129.164 33.9199C129.593 33.9086 129.967 33.9023 130.284 33.9023C131.739 33.9024 132.467 34.4549 132.467 35.5586C132.467 36.035 132.309 36.5051 131.996 36.9688C131.709 37.3939 131.384 37.6665 131.023 37.7861L130.924 37.8154C130.783 37.8621 130.414 37.8877 129.814 37.8906L129.219 37.8936C128.02 37.9109 127.109 37.9984 126.484 38.1543L126.397 38.4229C125.792 40.368 124.868 44.8303 123.625 51.8105L123.375 53.6396C122.868 57.4315 122.626 59.8069 122.647 60.7646C122.647 62.5705 122.108 63.4736 121.029 63.4736C120.177 63.4736 119.512 63.0349 119.035 62.1572C118.684 61.5553 118.509 60.7391 118.509 59.7109C118.509 56.3322 119.095 51.8059 120.266 46.1328L121.016 42.5469C121.318 41.079 121.561 39.8656 121.744 38.9062C116.051 40.035 111.286 41.3648 107.448 42.8945C105.141 46.2803 102.608 50.3436 99.8486 55.084L97.6504 58.9404C97.3067 59.537 96.8352 60.3206 96.2363 61.291C95.4338 62.6704 94.5939 63.3603 93.7158 63.3604C93.2762 63.3604 92.9006 63.2001 92.5889 62.8799L92.5117 62.7959C92.1859 62.47 92.0225 62.1065 92.0225 61.7051C92.0226 61.0027 92.9639 59.0092 94.8447 55.7236L95.2686 54.9971C96.245 53.3434 97.5921 51.169 99.3096 48.4746L99.9717 47.4365C100.562 46.5055 101.047 45.7183 101.428 45.0762C99.9231 45.5024 98.544 45.9924 97.29 46.5439C96.6882 46.8201 96.1864 46.958 95.7852 46.958C95.2834 46.958 94.8951 46.7317 94.6191 46.2803C94.4185 46.0046 94.3184 45.678 94.3184 45.3018C94.3185 44.4492 94.6189 43.8473 95.2207 43.4961C96.1989 42.8942 97.9551 42.2043 100.488 41.4268L101.101 41.2285C102.696 40.7036 103.984 40.2172 104.965 39.7715L105.172 39.5078C105.697 38.8232 106.681 37.4571 108.123 35.4102L109.257 33.7988C110.327 32.3112 112.985 29.1232 117.229 24.2344C120.226 20.7231 123.309 17.4412 126.48 14.3887L127.161 13.7373C129.142 11.8313 130.66 10.8779 131.714 10.8779ZM179.435 52.625C179.435 54.577 179.691 55.9643 180.205 56.7861C181.129 58.3269 182.517 59.0967 184.366 59.0967C186.678 59.0966 188.244 58.0693 189.066 56.0146C189.311 55.3785 189.438 54.3466 189.45 52.9189L189.451 10.7871H193.227V52.9336C193.226 55.7586 192.61 57.9673 191.377 59.5596C189.682 61.7683 187.422 62.873 184.597 62.873C181.618 62.8729 179.255 61.7166 177.509 59.4053C176.276 57.7615 175.659 55.553 175.659 52.7793V10.7871H179.435V52.625ZM157.064 58.4033H166.618V62.1797H153.289V10.7871H157.064V58.4033ZM218.833 14.5625H212.9V62.1797H209.125V14.5625H203.038V10.7871H218.833V14.5625ZM232.728 23.5771H242.128V10.7871H245.903V62.1797H242.128V27.3525H232.728V62.1797H228.952V27.3525H227.026L225.717 23.5771H228.952V10.7871H232.728V23.5771ZM272.357 14.5625H262.957V23.4238H271.896L273.282 27.1982H262.957V58.4033H272.357V62.1797H259.182V27.1982H257.256L255.869 23.4238H259.182V10.7871H272.357V14.5625ZM287.562 58.4033H297.116V62.1797H283.787V10.7871H287.562V58.4033ZM100.45 11.2549C101.93 11.2549 103.184 11.6435 104.212 12.4209C105.466 13.3488 106.094 14.6154 106.094 16.2207C106.094 18.7289 104.739 21.4373 102.03 24.3467C99.4718 27.0805 96.4872 29.3133 93.0762 31.0439C91.3707 31.8964 90.079 32.3223 89.2012 32.3223C88.6243 32.3222 88.1107 32.0839 87.6592 31.6074C87.3582 31.2814 87.207 30.9181 87.207 30.5166C87.2071 29.6196 87.9807 28.8863 89.5273 28.3174L89.6904 28.2598C92.7252 27.1813 95.4087 25.6635 97.7412 23.707C100.751 21.1991 102.256 19.0041 102.256 17.123C102.256 16.3959 101.955 15.8069 101.354 15.3555C100.877 15.0043 100.312 14.8281 99.6602 14.8281C97.9295 14.8281 95.7598 15.4929 93.1514 16.8223C89.6403 18.6029 86.8816 20.8982 84.875 23.707C83.1193 26.1399 82.2412 28.5108 82.2412 30.8184C82.2413 32.4984 82.705 34.2295 83.6328 36.0098C84.3586 37.3441 85.2703 38.842 86.3672 40.5039L86.6055 40.8623C87.759 42.593 88.7373 44.1987 89.54 45.6787C90.4678 47.4339 90.9316 49.0766 90.9316 50.6064C90.9316 53.5662 89.2383 56.1874 85.8525 58.4697C82.9682 60.3758 79.708 61.3291 76.0713 61.3291C72.4849 61.3291 69.6752 60.3388 67.6436 58.3574C66.1135 56.8524 65.3496 55.1211 65.3496 53.165C65.3497 50.983 66.0766 49.1523 67.5312 47.6729C68.409 46.7698 69.4497 46.0922 70.6533 45.6406C71.4808 45.3147 72.1711 45.1514 72.7227 45.1514C74.0769 45.1514 74.7547 45.7034 74.7549 46.8066C74.7549 47.6342 74.1271 48.2622 72.873 48.6885C70.7166 49.4663 69.6377 50.8578 69.6377 52.8643C69.6377 54.4693 70.2654 55.7229 71.5195 56.626C72.598 57.3782 73.9648 57.7549 75.6201 57.7549C78.9307 57.7548 81.8277 56.7896 84.3105 54.8584C85.8655 53.6294 86.6425 52.0742 86.6426 50.1934C86.6426 49.0396 86.4174 47.9982 85.9658 47.0703C85.4893 46.1173 84.762 44.9135 83.7842 43.459C82.2793 41.2019 81.0125 39.1447 79.9844 37.2891C78.8306 35.2324 78.2529 33.2128 78.2529 31.2314C78.253 26.5412 80.5731 22.1519 85.2129 18.0635C87.6708 15.9318 90.3801 14.2015 93.3398 12.8721C95.7975 11.7936 98.1679 11.2549 100.45 11.2549ZM63.8818 17.9893C62.2517 19.0676 60.5964 20.4969 58.916 22.2773L58.2773 22.9678C52.6956 29.0249 48.7321 33.9996 46.3877 37.8906L46.8359 37.7773C47.8899 37.5019 49.7352 36.975 52.3701 36.1973L52.8115 36.0781C53.8249 35.8142 55.6218 35.4018 58.2012 34.8428L58.5439 33.71C58.8504 32.6846 59.313 31.1184 59.9316 29.0117L59.9795 28.8418C60.2331 27.969 60.7939 26.3824 61.6621 24.083L63.1475 20.0146C63.4206 19.2627 63.6659 18.5876 63.8818 17.9893ZM128.479 17.9893C126.848 19.0676 125.193 20.4969 123.513 22.2773C117.809 28.416 113.724 33.4721 111.257 37.4453L110.984 37.8906C111.629 37.734 112.788 37.4139 114.46 36.9307L116.966 36.1973C117.568 36.0255 118.671 35.759 120.275 35.3984L122.797 34.8428C122.832 34.7313 122.876 34.591 122.927 34.4219L124.528 29.0117C124.725 28.2907 125.188 26.9514 125.917 24.9941L126.259 24.083C126.38 23.7529 126.498 23.4314 126.612 23.1182L128.479 17.9893ZM193.997 4.31543L192.688 7.16602L184.982 3.77539L177.277 7.16602L175.968 4.31543L184.982 0L193.997 4.31543Z" fill="#001427"/>
</svg>
