<svg width="223" height="64" viewBox="0 0 223 64" fill="none" xmlns="http://www.w3.org/2000/svg">
<path d="M122.487 23.8764C122.487 23.8764 202.429 -12.0071 215.713 19.1085C215.713 19.1085 224.345 -26.9068 122.487 23.8764Z" fill="#001427"/>
<path d="M26.7066 21.929C26.7066 21.929 27.0403 12.2144 29.695 6.84056C29.695 6.84056 34.4467 23.2799 36.5287 29.4633C36.5287 29.4633 28.3004 23.8212 26.7066 21.929Z" fill="#001427"/>
<path d="M34.8707 9.78625C32.1113 13.1486 32.6094 13.1486 32.6094 13.1486C33.7699 15.2991 36.4845 23.7671 36.4845 23.787C35.6975 17.3106 34.8707 9.78625 34.8707 9.78625Z" fill="#001427"/>
<path fill-rule="evenodd" clip-rule="evenodd" d="M38.0228 32.4242C38.0228 32.4242 43.0883 50.2939 45.4293 52.8219C45.4293 52.8219 46.2063 54.1777 49.6879 54.1777C49.6879 54.1777 20.4655 59.1145 20.4655 48.7393C20.4655 44.2744 15.7935 42.3325 15.7935 42.3325C13.846 40.9518 6.43949 41.3392 6.43949 41.3392C3.52073 40.7581 3.71498 38.4238 3.71498 38.4238C2.31855 37.5847 1.11253 36.465 0.173622 35.1359C-0.842464 33.2188 2.93299 32.9904 2.93299 32.9904C3.73988 32.598 12.8946 29.8813 12.8946 29.8813C14.8421 29.1214 16.0126 26.4047 16.0126 26.4047L18.1544 26.211C19.9076 24.4628 26.2333 23.8817 26.2333 23.8817C29.478 26.0999 31.7991 27.5973 33.4792 28.6811C36.6141 30.7035 37.517 31.2859 38.0228 32.4242ZM17.3276 28.0188C17.3276 28.0188 16.5705 28.6744 17.5666 29.3449C18.7469 29.3492 19.9247 29.2378 21.0831 29.0122C21.0831 29.0122 17.3276 28.2672 17.3276 28.0188Z" fill="#001427"/>
<path d="M64.337 54.3264C38.5214 61.7564 21.4721 55.3644 21.4721 55.3644C22.4327 62.6918 25.843 63.6633 26.1646 63.7549C26.1816 63.7598 26.1889 63.7629 26.1889 63.7629C43.0341 65.7744 64.337 54.3264 64.337 54.3264Z" fill="#001427"/>
<path d="M73.82 42.5356L70.0943 42.8932C70.35 45.0222 71.1204 46.6396 72.4054 47.7455C73.6905 48.8514 75.5334 49.4043 77.9341 49.4043C79.3426 49.4471 80.7457 49.2125 82.0632 48.714C83.1185 48.2973 84.0147 47.5585 84.6233 46.6032C85.2174 45.6985 85.5326 44.6401 85.5299 43.5587C85.5677 42.5027 85.3052 41.4576 84.7728 40.544C84.2612 39.7258 83.5365 39.0615 82.6758 38.6219C81.3561 38.0084 79.9685 37.5516 78.5418 37.2611C76.6789 36.824 75.5051 36.4019 75.0203 35.9946C74.8395 35.8584 74.6931 35.682 74.5928 35.4793C74.4924 35.2767 74.441 35.0535 74.4426 34.8275C74.4368 34.5969 74.4894 34.3686 74.5957 34.1637C74.7019 33.9588 74.8582 33.784 75.0502 33.6554C75.8271 33.1566 76.7427 32.9166 77.6651 32.97C78.5219 32.9087 79.375 33.1322 80.0908 33.6057C80.6922 34.1509 81.0686 34.8998 81.1467 35.7066L84.977 35.5377C84.9793 34.7485 84.8115 33.968 84.485 33.249C84.1584 32.5301 83.6807 31.8896 83.0843 31.3708C81.8789 30.3278 80.0858 29.8063 77.705 29.8063C76.4278 29.7728 75.1571 29.9975 73.9694 30.4668C73.0026 30.8518 72.1759 31.5203 71.5985 32.3839C71.0623 33.1835 70.7763 34.1239 70.7767 35.0858C70.7698 35.8097 70.9229 36.5264 71.225 37.1847C71.5272 37.8431 71.971 38.427 72.5249 38.8951C73.3551 39.6335 74.7962 40.2559 76.8483 40.7625C78.4455 41.1599 79.4682 41.4363 79.9165 41.5919C80.4391 41.7428 80.9142 42.025 81.2962 42.4114C81.5616 42.7322 81.7014 43.138 81.6896 43.5537C81.6835 43.9094 81.596 44.259 81.4337 44.5757C81.2714 44.8925 81.0387 45.1681 80.7533 45.3814C79.942 45.9553 78.9562 46.2309 77.964 46.1612C76.9612 46.2145 75.9733 45.902 75.1847 45.2821C74.4249 44.5516 73.9426 43.581 73.82 42.5356Z" fill="#001427"/>
<path d="M88.742 49.052V30.1294H102.813V33.3328H92.5772V37.5246H102.101V40.7131H92.5772V45.8634H103.176V49.052H88.742Z" fill="#001427"/>
<path d="M122.283 43.2707L118.568 42.0936C118.37 43.2352 117.824 44.2881 117.004 45.1083C116.281 45.7505 115.341 46.0965 114.374 46.0768C113.734 46.0956 113.099 45.9685 112.516 45.7051C111.934 45.4417 111.419 45.049 111.012 44.557C110.148 43.5405 109.717 41.8354 109.717 39.4415C109.717 37.1916 110.155 35.5477 111.032 34.5544C111.453 34.0657 111.98 33.678 112.572 33.4201C113.164 33.1621 113.807 33.0406 114.453 33.0644C115.388 33.0314 116.304 33.3334 117.035 33.9155C117.766 34.4977 118.264 35.3216 118.438 36.238L122.233 35.3341C121.912 34.022 121.241 32.8208 120.291 31.8575C118.75 30.4563 116.716 29.7191 114.633 29.8063C111.973 29.803 109.828 30.6738 108.197 32.4187C106.567 34.1637 105.752 36.6105 105.752 39.7593C105.752 42.7393 106.564 45.0851 108.188 46.797C109.651 48.2423 111.571 49.1386 113.621 49.3341C115.672 49.5296 117.727 49.0123 119.439 47.8697C120.767 46.8665 121.715 45.3335 122.283 43.2707Z" fill="#001427"/>
<path d="M128.229 48.9261L123.702 30.0035H127.621L130.485 43.001L133.972 30.0035H138.529L141.857 43.2195L144.765 30.0035H148.626L144.018 48.9261H139.954L136.174 34.7814L132.408 48.9261H128.229Z" fill="#001427"/>
<path fill-rule="evenodd" clip-rule="evenodd" d="M162.07 49.052H166.239L158.644 30.1294H154.589L147.198 49.052H151.262L152.831 44.7509H160.417L162.07 49.052ZM156.581 34.5446L159.196 41.5624H154.016L156.581 34.5446Z" fill="#001427"/>
<path d="M170.577 49.052V33.3328H164.944V30.1294H180.026V33.3328H174.407V49.052H170.577Z" fill="#001427"/>
<path d="M198.356 43.2707L194.64 42.0936C194.443 43.2351 193.896 44.2881 193.076 45.1083C192.353 45.7505 191.414 46.0964 190.446 46.0768C189.807 46.0956 189.171 45.9684 188.589 45.7051C188.006 45.4417 187.491 45.049 187.084 44.557C186.221 43.5405 185.789 41.8353 185.789 39.4414C185.789 37.1916 186.222 35.5477 187.099 34.5543C187.522 34.0658 188.049 33.6783 188.642 33.4204C189.236 33.1625 189.879 33.0409 190.526 33.0644C191.461 33.0314 192.377 33.3333 193.108 33.9155C193.838 34.4977 194.336 35.3215 194.511 36.238L198.301 35.3341C197.983 34.0204 197.312 32.8182 196.358 31.8575C194.819 30.4566 192.787 29.7193 190.705 29.8063C188.045 29.803 185.9 30.6738 184.27 32.4187C182.64 34.1636 181.824 36.6105 181.824 39.7593C181.824 42.7392 182.636 45.0851 184.26 46.7969C185.724 48.2422 187.643 49.1386 189.694 49.3341C191.745 49.5296 193.8 49.0122 195.512 47.8697C196.837 46.8665 197.785 45.3334 198.356 43.2707Z" fill="#001427"/>
<path d="M201.653 49.052V30.1294H205.488V37.5792H212.989V30.1294H216.819V49.052H212.989V40.7777H205.488V49.052H201.653Z" fill="#001427"/>
<path fill-rule="evenodd" clip-rule="evenodd" d="M219.738 30.8891V32.8757L220.052 32.8559V32.0215H220.236C220.327 32.0146 220.418 32.0372 220.495 32.0861C220.629 32.221 220.74 32.377 220.824 32.5479L221.003 32.8559H221.392L221.148 32.4734C221.066 32.3328 220.969 32.2013 220.859 32.0811C220.808 32.0373 220.751 32.0021 220.689 31.9768C220.843 31.9695 220.988 31.9058 221.098 31.798C221.147 31.7485 221.187 31.6896 221.213 31.6248C221.24 31.56 221.253 31.4905 221.252 31.4205C221.253 31.3176 221.222 31.2169 221.163 31.1325C221.102 31.0445 221.015 30.9783 220.913 30.9437C220.752 30.8987 220.583 30.8803 220.415 30.8891H219.738ZM220.46 31.7682H220.057L220.077 31.1722H220.435C220.544 31.1679 220.653 31.1796 220.759 31.207C220.812 31.2303 220.858 31.2661 220.894 31.3113C220.924 31.3586 220.94 31.414 220.938 31.4702C220.94 31.5118 220.932 31.5533 220.914 31.5912C220.897 31.6291 220.871 31.6625 220.839 31.6887C220.724 31.7543 220.592 31.7821 220.46 31.7682Z" fill="#001427"/>
<path fill-rule="evenodd" clip-rule="evenodd" d="M221.441 30.2733C221.166 30.1184 220.856 30.0364 220.54 30.0349C220.224 30.037 219.914 30.1191 219.638 30.2733C219.348 30.426 219.108 30.661 218.951 30.9487C218.79 31.2284 218.706 31.5452 218.707 31.8675C218.708 32.1858 218.791 32.4985 218.946 32.7764C219.106 33.0607 219.342 33.2947 219.628 33.4519C219.906 33.6114 220.222 33.6953 220.542 33.6953C220.863 33.6953 221.178 33.6114 221.456 33.4519C221.742 33.296 221.977 33.0615 222.134 32.7764C222.289 32.4985 222.372 32.1858 222.373 31.8675C222.374 31.5452 222.289 31.2284 222.129 30.9487C221.971 30.661 221.732 30.426 221.441 30.2733ZM219.788 30.5365C220.017 30.4073 220.276 30.3389 220.54 30.3378C220.805 30.3376 221.066 30.4061 221.297 30.5365C221.541 30.6636 221.74 30.8609 221.87 31.1027C222.002 31.3342 222.072 31.5961 222.072 31.8626C222.072 32.129 222.002 32.3909 221.87 32.6224C221.739 32.8619 221.542 33.0586 221.302 33.1886C221.07 33.322 220.807 33.3922 220.54 33.3922C220.272 33.3922 220.01 33.322 219.778 33.1886C219.54 33.0569 219.345 32.8605 219.215 32.6224C219.081 32.3934 219.01 32.1328 219.011 31.8675C219.012 31.5993 219.082 31.3359 219.215 31.1027C219.346 30.862 219.545 30.6651 219.788 30.5365Z" fill="#001427"/>
</svg>
