<svg width="223" height="64" viewBox="0 0 223 64" fill="none" xmlns="http://www.w3.org/2000/svg">
<path fill-rule="evenodd" clip-rule="evenodd" d="M86.9219 47.1115C88.2948 47.1115 89.5659 47.3217 90.7412 47.7418C91.9164 48.1593 92.9338 48.7421 93.7965 49.4879C94.6592 50.2334 95.3296 51.1236 95.8077 52.153C96.2857 53.1875 96.5235 54.3243 96.5235 55.5714C96.5235 56.8188 96.2803 57.9583 95.7916 58.9874C95.3029 60.0193 94.6325 60.9096 93.7805 61.6552C92.9286 62.401 91.9057 62.9786 90.7091 63.3855C89.5152 63.7951 88.2199 64 86.8283 64C85.4583 64 84.1895 63.7951 83.0252 63.3855C81.8607 62.9786 80.8591 62.3956 80.0177 61.6394C79.1765 60.8832 78.5167 59.9799 78.0387 58.9271C77.5606 57.8742 77.3203 56.7058 77.3203 55.4193C77.3203 54.2535 77.5606 53.1663 78.0387 52.153C78.5167 51.142 79.1817 50.265 80.0338 49.5194C80.8858 48.7737 81.898 48.1856 83.0732 47.7574C84.2456 47.327 85.5303 47.1115 86.9219 47.1115ZM110.523 47.6945V56.551C110.523 58.4939 111.479 59.4627 113.391 59.4627C115.304 59.4627 116.26 58.4939 116.26 56.551V47.6945H121.903V57.6246C121.903 59.7488 121.19 61.3427 119.767 62.4061C118.343 63.4669 116.217 64 113.391 64C110.566 64 108.44 63.4669 107.016 62.4061C105.593 61.3427 104.882 59.7488 104.882 57.6246V47.6945H110.523ZM159.282 47.1115C161.051 47.1115 162.765 47.4502 164.426 48.1251L162.525 51.7406C161.486 51.2103 160.468 50.9423 159.469 50.9423C158.951 50.9423 158.529 51.0448 158.209 51.2497C157.886 51.4543 157.725 51.7301 157.725 52.0767C157.725 52.2606 157.749 52.4101 157.803 52.5231C157.854 52.6334 157.968 52.7411 158.145 52.8434C158.321 52.9459 158.583 53.0378 158.924 53.1192C159.266 53.2006 159.72 53.3029 160.281 53.4263C161.838 53.7335 163.003 54.2796 163.772 55.0647C164.541 55.8526 164.926 56.8581 164.926 58.0842C164.926 59.0032 164.739 59.8304 164.365 60.5655C163.991 61.3033 163.47 61.9203 162.805 62.4219C162.14 62.9208 161.341 63.3094 160.407 63.585C159.469 63.8606 158.441 64 157.319 64C155.159 64 153.027 63.3959 150.928 62.1908L152.987 58.2681C154.566 59.3315 156.061 59.8618 157.474 59.8618C157.995 59.8618 158.42 59.7488 158.754 59.5257C159.085 59.2999 159.253 59.0137 159.253 58.6671C159.253 58.4625 159.226 58.2943 159.173 58.1604C159.122 58.029 159.013 57.9058 158.847 57.7928C158.681 57.6798 158.436 57.5775 158.115 57.4856C157.792 57.3936 157.37 57.299 156.852 57.1967C155.105 56.8475 153.885 56.3328 153.187 55.6477C152.493 54.9622 152.143 54.0198 152.143 52.812C152.143 51.935 152.311 51.142 152.643 50.4383C152.977 49.7321 153.455 49.136 154.077 48.6449C154.699 48.154 155.452 47.7759 156.336 47.5107C157.221 47.2454 158.203 47.1115 159.282 47.1115ZM65.8378 42.9761V47.6945H69.0508V52.3236H65.8378V63.4168H60.197V52.3236H58.3248V47.6945H60.197V42.9761H65.8378ZM141.933 47.3584C142.109 47.3584 142.312 47.3795 142.539 47.4188V52.7199C141.791 52.3525 140.982 52.1685 140.109 52.1685C138.8 52.1685 137.817 52.552 137.163 53.3187C136.509 54.0854 136.18 55.204 136.18 56.6742V63.4168H130.539V47.6945H136.18V50.2703C136.784 49.3302 137.521 48.6108 138.394 48.1093C139.268 47.6079 140.285 47.3584 141.45 47.3584H141.933ZM86.9219 51.9245C86.4251 51.9245 85.9497 52.0162 85.5036 52.2001C85.0576 52.384 84.673 52.6385 84.3499 52.9668C84.0293 53.2924 83.7676 53.6706 83.5727 54.1012C83.3723 54.5291 83.2761 54.9887 83.2761 55.4796C83.2761 56.01 83.3723 56.4958 83.5727 56.9342C83.7676 57.3753 84.0293 57.7586 84.3499 58.0842C84.673 58.4125 85.0576 58.6671 85.5036 58.8511C85.9497 59.0346 86.4251 59.1267 86.9219 59.1267C87.4213 59.1267 87.8941 59.0346 88.3401 58.8511C88.7887 58.6671 89.1706 58.4125 89.4939 58.0842C89.817 57.7586 90.0761 57.3753 90.2738 56.9342C90.4713 56.4958 90.5702 56.0205 90.5702 55.5111C90.5702 55.02 90.4713 54.5554 90.2738 54.1141C90.0761 53.6757 89.817 53.2924 89.4939 52.9668C89.1706 52.6385 88.7887 52.384 88.3401 52.2001C87.8941 52.0162 87.4213 51.9245 86.9219 51.9245Z" fill="#001427"/>
<path fill-rule="evenodd" clip-rule="evenodd" d="M134.512 4.58536e-05H124.762V25.9238H134.512C136.201 25.956 137.875 25.6003 139.41 24.8833C140.898 24.1774 142.254 23.2128 143.417 22.033C144.548 20.8477 145.44 19.4492 146.043 17.916C146.705 16.3754 147.038 14.7104 147.023 13.0298C147.057 11.3036 146.723 9.59027 146.043 8.00792C145.408 6.48133 144.502 5.08595 143.372 3.89088C142.226 2.7118 140.885 1.74698 139.41 1.04062C137.867 0.349838 136.198 -0.00463982 134.512 4.58536e-05ZM132.954 20.1328H131.44V5.70057H132.865C133.899 5.68467 134.926 5.86892 135.892 6.24347C136.833 6.58975 137.685 7.14637 138.386 7.8722C139.027 8.52154 139.514 9.31057 139.81 10.1795C140.171 11.0846 140.353 12.0533 140.345 13.0298C140.249 13.9868 139.993 14.9201 139.588 15.7896C139.291 16.6452 138.803 17.4194 138.163 18.0517C137.528 18.7297 136.752 19.2553 135.892 19.5899C134.954 19.9514 133.958 20.1354 132.954 20.1328Z" fill="#001427"/>
<path d="M33.9491 16.6503L29.4968 0.0011401H22.774L30.1647 25.7892H36.8875L41.874 10.8593L46.8605 25.7892H53.6724L61.2411 0.0011401H54.3402L49.888 16.6503L44.5008 0.0011401H39.2472L33.9491 16.6503Z" fill="#001427"/>
<path d="M14.9149 0.00171015H8.45921V17.7367C8.45921 19.7273 7.8359 20.7227 6.58928 20.7227C6.31754 20.7215 6.04931 20.6602 5.80327 20.543C5.55722 20.4258 5.33926 20.2555 5.16457 20.044C4.76113 19.5056 4.51434 18.8629 4.45222 18.1891L0 22.7133C0.675709 23.8935 1.64348 24.8735 2.80722 25.5561C3.97095 26.2386 5.29015 26.5999 6.6338 26.6041C7.55765 26.6092 8.47575 26.4562 9.34966 26.1517C10.1307 25.9392 10.8796 25.6196 11.5758 25.2016C12.2483 24.7732 12.8495 24.2387 13.3567 23.6182C13.8202 23.0701 14.2096 22.4615 14.5142 21.8085C14.7103 21.2834 14.8448 20.7368 14.9149 20.1798V0.00171015Z" fill="#001427"/>
<path fill-rule="evenodd" clip-rule="evenodd" d="M95.2205 21.3102H85.7818L84.268 25.8345H77.2335L86.8948 0.0011401H93.9294L103.591 25.7892H96.7342L95.2205 21.3102ZM93.4841 16.2431L90.5011 7.64708L87.5627 16.2431H93.4841Z" fill="#001427"/>
<path fill-rule="evenodd" clip-rule="evenodd" d="M162.568 25.8345L164.082 21.3102H173.52L174.856 25.7892H182.069L172.407 0.0011401H165.195L155.533 25.8345H162.568ZM168.801 7.64708L171.739 16.2431H165.952L168.801 7.64708Z" fill="#001427"/>
<path d="M194.646 0.0011401L190.193 25.7892H196.916L199.098 10.9498L204.708 25.7892H207.334L213.345 10.9498L215.527 25.7892H222.294L217.842 0.0011401H211.341L206.266 13.5738L201.19 0.0011401H194.646Z" fill="#001427"/>
<path d="M111.238 0H116.572V11.4286H111.238V0Z" fill="#001427"/>
</svg>
