<svg width="124" height="64" viewBox="0 0 124 64" fill="none" xmlns="http://www.w3.org/2000/svg">
<path fill-rule="evenodd" clip-rule="evenodd" d="M57.3681 0.021806L57.379 0L123.447 21.4231V26.122L57.4226 4.99327L3.81582 27.7137V63.6151H0V24.2032H0.0108997L0 24.1814L57.3681 0.021806ZM5.45117 63.6587H19.6787V58.8726H10.4117L19.8968 33.5574V29.8288H5.99628V34.5604H14.4456L5.45117 59.4722V63.6587ZM22.4261 63.6587H27.2013V39.9571H22.4261V63.6587ZM36.4356 63.7024H31.2897V39.6845H35.9232V40.6003V41.974C37.3078 39.7935 38.507 39.4119 40.6112 39.4119C43.9364 39.4119 45.6808 41.3308 45.6808 47.7522V63.7024H40.8292V48.5263C40.8292 44.3834 39.9571 44.0999 38.3217 44.0999C36.4138 44.0999 36.0867 45.9533 36.0867 45.9533L36.4356 63.7024ZM70.8325 63.3862C72.0535 63.9204 74.7791 64.0621 75.2261 63.7024V59.3523C74.9754 59.4613 73.6235 59.5049 72.9911 58.8726C72.9148 58.7963 72.8385 58.7309 72.784 58.6764C72.4678 58.3929 72.3915 58.3275 72.3915 57.1827V29.8397H68.0306V57.0192C68.0306 61.5219 69.6114 62.852 70.8325 63.3862ZM111.694 63.7024H107.17V29.8288H111.694V49.7146H112.349L117.8 39.6845H122.542L117.124 49.7146L123.851 63.7024H118.781L114.147 52.7673L111.694 57.0192V63.7024ZM49.8237 63.7024H54.3481V57.0192L56.8012 52.7673L61.4347 63.6914H66.5042L59.7775 49.7038L65.196 39.6736H60.4534L55.0023 49.7038H54.3481V29.8179H49.8237V63.7024ZM22.5678 29.9814H27.1468V34.7785H22.5678V29.9814ZM76.7524 46.1169C76.7524 40.6112 81.4732 39.3901 83.6754 39.4665C89.2138 39.4665 90.6311 43.9037 90.6529 46.1169C90.6529 40.6112 95.3736 39.3901 97.5759 39.4665C103.114 39.4665 104.532 43.9037 104.553 46.1169V51.568V51.8951V57.3463C104.532 59.5595 103.114 63.9967 97.5759 63.9967C95.3736 64.073 90.6529 62.852 90.6529 57.3463C90.6311 59.5595 89.2138 63.9967 83.6754 63.9967C81.4732 64.073 76.7524 62.852 76.7524 57.3463V51.568V46.1169ZM86.2375 46.1169V51.568V51.8951V57.3463C86.2375 58.1094 85.289 59.2542 83.8935 59.2542C82.498 59.2542 81.5495 58.164 81.5495 57.3463V51.8951V46.1169C81.5495 45.2992 82.498 44.209 83.8935 44.209C85.289 44.209 86.2375 45.3537 86.2375 46.1169ZM100.138 51.568V46.1169C100.138 45.3537 99.1895 44.209 97.794 44.209C96.3985 44.209 95.4499 45.2992 95.4499 46.1169V51.8951V57.3463C95.4499 58.164 96.3985 59.2542 97.794 59.2542C99.1895 59.2542 100.138 58.1094 100.138 57.3463V51.8951V51.568Z" fill="#001427"/>
</svg>
