<svg width="267" height="64" viewBox="0 0 267 64" fill="none" xmlns="http://www.w3.org/2000/svg">
<path d="M89.155 54.3048C88.7167 53.4883 87.8008 52.8115 86.7458 52.8115C85.4516 52.8115 84.3566 53.787 84.3566 55.6384C84.3566 57.4904 85.4516 58.4658 86.7458 58.4658C87.8008 58.4658 88.7167 57.7884 89.155 56.9726V54.3048ZM91.126 60.1382C90.0704 60.1382 89.4136 59.6999 89.2145 58.7444C88.5377 59.6604 87.303 60.1782 86.089 60.1782C83.7593 60.1782 82.0469 58.2273 82.0469 55.6384C82.0469 53.05 83.7593 51.0991 86.089 51.0991C87.2435 51.0991 88.3987 51.5568 89.155 52.4527V47.993L91.4641 47.6944V58.2467C91.4641 58.7645 91.6438 58.9836 91.9819 58.9836C92.1616 58.9836 92.3006 58.9435 92.4402 58.864V59.74C92.2411 59.919 91.6832 60.1382 91.126 60.1382Z" fill="#001427"/>
<path d="M97.9588 52.5715C96.9834 52.5715 96.1469 53.1294 95.9478 54.4629H99.6312C99.8303 53.4274 99.1534 52.5715 97.9588 52.5715ZM98.0584 60.1768C95.4106 60.1768 93.5586 58.2459 93.5586 55.578C93.5586 52.8301 95.6692 51.0976 97.8987 51.0976C100.089 51.0976 101.722 52.4519 101.722 54.5224C101.722 54.9012 101.662 55.4184 101.583 55.697H95.8482C95.8082 57.0506 96.4061 58.5051 98.7552 58.5051C99.7107 58.5051 100.647 58.1263 101.264 57.6479L101.901 58.8031C101.084 59.5995 99.7507 60.1768 98.0584 60.1768Z" fill="#001427"/>
<path d="M106.476 60.1782C104.983 60.1782 104.047 59.2622 104.047 57.3507V52.8516H102.812V51.3383H104.047V49.2872L106.356 48.9891V51.3383H108.467V52.8516H106.356V57.2118C106.356 58.1866 106.595 58.6048 107.332 58.6048C107.91 58.6048 108.288 58.4064 108.566 58.2073L108.805 59.3618C108.347 59.78 107.451 60.1782 106.476 60.1782Z" fill="#001427"/>
<path d="M115.06 55.8375C112.99 56.0366 111.675 56.7334 111.675 57.7089C111.675 58.4852 112.213 58.7044 112.791 58.7044C113.248 58.7044 114.224 58.3663 115.06 57.5298V55.8375ZM117.031 60.1382C115.956 60.1382 115.319 59.6999 115.12 58.7839C114.144 59.7393 112.99 60.1782 111.875 60.1782C110.621 60.1782 109.625 59.3217 109.625 57.9881C109.625 55.9771 112.094 54.7818 115.06 54.5233V54.1845C115.06 53.1696 114.623 52.6919 113.527 52.6919C112.612 52.6919 111.098 53.2097 110.222 53.807V52.094C110.919 51.6964 112.771 51.0991 113.906 51.0991C115.817 51.0991 117.37 51.796 117.37 54.1651V58.2467C117.37 58.7645 117.549 59.0037 117.888 59.0037C118.067 59.0037 118.226 58.9435 118.345 58.8834V59.76C118.086 59.9785 117.549 60.1382 117.031 60.1382Z" fill="#001427"/>
<path d="M123.977 60.1782C121.388 60.1782 119.438 58.3068 119.438 55.6189C119.438 52.9311 121.388 51.0991 123.977 51.0991C125.211 51.0991 126.226 51.3777 127.063 51.955V53.7475C126.306 53.0901 125.39 52.8516 124.474 52.8516C122.882 52.8516 121.747 53.9861 121.747 55.6189C121.747 57.3113 122.882 58.4258 124.474 58.4258C125.39 58.4258 126.326 58.1866 127.063 57.5098V59.3223C126.226 59.919 125.211 60.1782 123.977 60.1782Z" fill="#001427"/>
<path d="M135.091 59.9395V55.1811C135.091 53.5088 134.514 52.9515 133.459 52.9515C132.364 52.9515 131.169 53.947 131.169 55.141V59.9395H128.859V47.9934L131.169 47.6948V52.7725C131.806 51.8364 133.02 51.0995 134.255 51.0995C136.544 51.0995 137.4 52.6923 137.4 54.8223V59.9395H135.091Z" fill="#001427"/>
<path d="M143.568 52.5715C142.591 52.5715 141.756 53.1294 141.557 54.4629H145.24C145.439 53.4274 144.762 52.5715 143.568 52.5715ZM143.667 60.1768C141.019 60.1768 139.168 58.2459 139.168 55.578C139.168 52.8301 141.278 51.0976 143.507 51.0976C145.698 51.0976 147.33 52.4519 147.33 54.5224C147.33 54.9012 147.271 55.4184 147.191 55.697H141.457C141.417 57.0506 142.015 58.5051 144.363 58.5051C145.319 58.5051 146.255 58.1263 146.872 57.6479L147.51 58.8031C146.693 59.5995 145.359 60.1768 143.667 60.1768Z" fill="#001427"/>
<path d="M151.59 55.2406V59.9395H149.281V51.4382L151.392 51.159L151.491 52.9108C151.989 51.9153 153.243 51.0995 154.696 51.0995V53.3491C153.124 52.9709 151.59 53.7673 151.59 55.2406Z" fill="#001427"/>
<path d="M156.013 59.9395V51.3982L158.322 51.0995V59.9395H156.013ZM158.382 48.9094C158.382 49.5668 157.845 50.104 157.168 50.104C156.492 50.104 155.953 49.5668 155.953 48.9094C155.953 48.2326 156.492 47.6948 157.168 47.6948C157.845 47.6948 158.382 48.2326 158.382 48.9094Z" fill="#001427"/>
<path d="M166.825 59.9395V55.1811C166.825 53.5088 166.248 52.9515 165.193 52.9515C164.098 52.9515 162.903 53.947 162.903 55.141V59.9395H160.594V51.4382L162.704 51.1596L162.804 52.9315C163.381 51.8364 164.675 51.0995 165.989 51.0995C168.279 51.0995 169.134 52.6923 169.134 54.8223V59.9395H166.825Z" fill="#001427"/>
<path d="M173.1 54.085C173.1 55.0805 173.777 55.7768 174.832 55.7768C175.827 55.7768 176.544 55.0805 176.544 54.085C176.544 53.0889 175.827 52.4121 174.832 52.4121C173.777 52.4121 173.1 53.0889 173.1 54.085ZM178.137 52.8504C178.396 53.109 178.595 53.6274 178.595 54.085C178.595 55.8175 177.102 56.952 175.21 57.0509C173.557 57.1504 173.16 57.2901 173.16 57.7083C173.16 58.047 173.557 58.206 175.35 58.2461C178.277 58.3457 179.292 59.5597 179.292 61.0129C179.292 62.7854 177.44 64 174.891 64C172.244 64 170.531 63.084 170.531 61.87C170.531 60.9935 171.388 60.3962 172.065 60.3166L172.901 60.6153C172.682 60.7749 172.343 60.9734 172.343 61.4117C172.343 62.148 173.399 62.5262 174.812 62.5262C176.385 62.5262 177.201 61.989 177.201 61.2921C177.201 60.5552 176.504 60.177 174.633 60.157C172.462 60.0975 171.149 59.5998 171.149 58.2461C171.149 57.5893 171.726 56.8718 172.662 56.6333C171.706 56.195 170.97 55.3197 170.97 54.085C170.97 52.3526 172.462 51.0979 174.812 51.0979C175.807 51.0979 176.305 51.3371 177.42 51.3371H179.411V52.8504H178.137Z" fill="#001427"/>
<path d="M184.819 59.9387L182.693 62.0649L180.566 59.9387L182.693 57.8125L184.819 59.9387Z" fill="#001427"/>
<path d="M137.365 12.0377L134.381 19.3468H140.316L137.365 12.0377ZM143.468 27.1587L141.422 22.1968H133.275L131.23 27.1587H127.273L135.823 7.04203H139.008L147.557 27.1587H143.468Z" fill="#001427"/>
<path d="M156.203 27.1587V7.04203H160.293V23.9737H169.312V27.1587H156.203Z" fill="#001427"/>
<path d="M177.957 27.1587V7.04203H191.066V10.227H182.047V17.1504H189.39V20.3361H182.047V23.9737H191.066V27.1587H177.957Z" fill="#001427"/>
<path d="M213.901 27.1587L203.373 13.8816V27.1587H199.719V7.04203H202.568L213.096 20.3192V7.04203H216.751V27.1587H213.901Z" fill="#001427"/>
<path d="M236.291 10.227V27.1587H232.201V10.227H225.395V7.04203H243.098V10.227H236.291Z" fill="#001427"/>
<path d="M258.891 27.5615C255.539 27.5615 253.124 26.2536 251.75 25.0471L252.689 21.8283C254.03 23.1024 256.142 24.5443 258.891 24.5443C260.903 24.5443 262.446 23.5382 262.446 21.7613C262.446 20.0852 261.507 19.2801 258.221 18.4085C253.996 17.3692 252.32 15.1227 252.32 12.2389C252.32 8.95376 254.936 6.57332 259.26 6.57332C261.741 6.57332 263.954 7.51185 265.296 8.55118L264.424 11.4006C263.015 10.462 261.004 9.6575 259.227 9.6575C257.248 9.6575 256.075 10.5297 256.075 11.9709C256.075 13.1443 256.813 14.0164 259.529 14.7202C264.223 15.8935 266.234 17.872 266.234 21.3587C266.234 25.6838 262.68 27.5615 258.891 27.5615Z" fill="#001427"/>
<path d="M53.602 34.2026V3.58749H50.1641L50.3106 1.07244L57.4913 -7.37277e-05V34.2026H53.602Z" fill="#001427"/>
<path d="M118.623 10.227V27.1587H114.532V10.227H107.727V7.04203H125.429V10.227H118.623Z" fill="#001427"/>
<path d="M7.14132 27.5615C3.78854 27.5615 1.37429 26.2536 0 25.0471L0.938528 21.8283C2.27964 23.1024 4.39211 24.5443 7.14132 24.5443C9.15236 24.5443 10.6951 23.5382 10.6951 21.7613C10.6951 20.0852 9.75655 19.2801 6.47077 18.4085C2.24645 17.3692 0.569753 15.1227 0.569753 12.2389C0.569753 8.95376 3.18498 6.57332 7.5101 6.57332C9.99071 6.57332 12.204 7.51185 13.5451 8.55118L12.6729 11.4006C11.2648 10.462 9.25316 9.6575 7.47629 9.6575C5.49843 9.6575 4.32449 10.5297 4.32449 11.9709C4.32449 13.1443 5.06204 14.0164 7.77807 14.7202C12.472 15.8935 14.4836 17.872 14.4836 21.3587C14.4836 25.6838 10.9299 27.5615 7.14132 27.5615Z" fill="#001427"/>
<path d="M34.0926 9.72627C30.0692 9.72627 27.4208 12.7435 27.4208 17.1024C27.4208 21.4613 30.0692 24.4785 34.0926 24.4785C38.0489 24.4785 40.6642 21.4613 40.6642 17.1024C40.6642 12.7435 38.0489 9.72627 34.0926 9.72627ZM34.0926 27.7305C27.9236 27.7305 23.1289 23.2714 23.1289 17.1024C23.1289 10.9334 27.9236 6.4743 34.0926 6.4743C40.2284 6.4743 44.9561 10.9334 44.9561 17.1024C44.9561 23.2714 40.2284 27.7305 34.0926 27.7305Z" fill="#001427"/>
<path d="M77.1043 9.72565C73.081 9.72565 70.4326 12.7428 70.4326 17.1018C70.4326 21.4607 73.081 24.4779 77.1043 24.4779C81.0606 24.4779 83.6759 21.4607 83.6759 17.1018C83.6759 12.7428 81.0606 9.72565 77.1043 9.72565ZM77.1043 27.7305C70.9353 27.7305 66.1406 23.2707 66.1406 17.1018C66.1406 10.9328 70.9353 6.47367 77.1043 6.47367C83.2401 6.47367 87.9678 10.9328 87.9678 17.1018C87.9678 23.2707 83.2401 27.7305 77.1043 27.7305Z" fill="#001427"/>
</svg>
