<svg width="53" height="64" viewBox="0 0 53 64" fill="none" xmlns="http://www.w3.org/2000/svg">
<path d="M34.8164 11.5876L52.2205 28.9917V11.5876H34.8164Z" fill="#001427"/>
<path d="M0.00390625 28.9917L17.4078 11.5876H0.00390625V28.9917Z" fill="#001427"/>
<path d="M17.4121 63.7993H34.816V11.5873H17.4121V63.7993Z" fill="#001427"/>
<path d="M2.21402 2.34167H0.00390625V0.131209H6.70062V2.34167H4.4905V8.32373H2.21402V2.34167Z" fill="#001427"/>
<path d="M7.93555 0.131209H14.0473V2.14656H10.2112V3.1871H13.7225V5.13811H10.2112V6.30803H14.1775V8.32373H7.93555V0.131209Z" fill="#001427"/>
<path d="M17.7236 5.33287L14.9277 0.131209H17.3989L18.8294 3.05703H18.894L20.3247 0.131209H22.7958L19.9998 5.33287V8.32373H17.7236V5.33287Z" fill="#001427"/>
<path d="M23.6504 0.131209H25.9259V6.11293H29.5024V8.32373H23.6504V0.131209Z" fill="#001427"/>
<path d="M30.6094 0.131209H36.7215V2.14656H32.8852V3.1871H36.3967V5.13811H32.8852V6.30803H36.8516V8.32373H30.6094V0.131209Z" fill="#001427"/>
<path d="M38.2812 0.131209H41.8574C42.3079 0.131209 42.7219 0.202714 43.0999 0.345719C43.4768 0.488725 43.7992 0.688595 44.0682 0.943962C44.3365 1.20001 44.5452 1.49657 44.6923 1.83468C44.8394 2.17279 44.9133 2.53677 44.9133 2.92731C44.9133 3.34339 44.837 3.69239 44.6859 3.97398C44.5347 4.2559 44.3716 4.48743 44.1983 4.6696C43.9814 4.88649 43.7427 5.06422 43.4836 5.2028L45.3035 8.32373H42.7679C42.6467 8.10718 42.5098 7.85147 42.3579 7.55661C42.2064 7.26174 42.0569 6.97573 41.9095 6.69823C41.7444 6.37783 41.5758 6.05266 41.4025 5.72307H40.5567V8.32373H38.2812V0.131209ZM41.7273 3.64234C41.9875 3.64234 42.1935 3.57322 42.345 3.4343C42.4968 3.29572 42.5731 3.1265 42.5731 2.92731C42.5731 2.72779 42.4968 2.55856 42.345 2.41998C42.1935 2.2814 41.9875 2.2116 41.7273 2.2116H40.5567V3.64234H41.7273Z" fill="#001427"/>
<path d="M49.142 8.45312C48.6387 8.45312 48.1859 8.38163 47.7824 8.23862C47.3799 8.09562 47.0388 7.89609 46.7616 7.64038C46.4841 7.38467 46.2699 7.08777 46.1177 6.74966C45.9666 6.41156 45.8906 6.04757 45.8906 5.65703L48.1014 5.46227C48.1014 5.7224 48.1883 5.93929 48.3616 6.11226C48.5349 6.28591 48.7518 6.37274 49.0119 6.37274C49.3061 6.37274 49.5206 6.30737 49.6554 6.1773C49.7896 6.04757 49.8566 5.91751 49.8566 5.78744C49.8566 5.62264 49.7613 5.49258 49.5706 5.3969C49.38 5.3019 49.1433 5.2086 48.8621 5.11769C48.5798 5.02644 48.2723 4.92259 47.9387 4.80547C47.6046 4.68868 47.2972 4.53239 47.0149 4.33729C46.7337 4.14253 46.4974 3.89091 46.3067 3.58311C46.1164 3.27565 46.0204 2.88306 46.0204 2.40638C46.0204 2.08564 46.0874 1.77783 46.2226 1.48297C46.3564 1.1881 46.5512 0.932394 46.8076 0.715842C47.0633 0.49895 47.3775 0.325648 47.7507 0.195581C48.1225 0.0655146 48.543 0.000141144 49.0119 0.000141144C49.4968 0.000141144 49.937 0.0719776 50.332 0.214984C50.7263 0.357989 51.0616 0.553096 51.3398 0.800292C51.617 1.04715 51.8288 1.33758 51.9769 1.67126C52.124 2.00494 52.1979 2.35871 52.1979 2.73155L49.9867 2.92665C49.9867 2.66651 49.9026 2.46017 49.733 2.30865C49.5645 2.15679 49.3667 2.08121 49.142 2.08121C48.9424 2.08121 48.7841 2.13535 48.6677 2.24362C48.5495 2.35224 48.4916 2.47141 48.4916 2.60114C48.4916 2.76593 48.5863 2.89396 48.7776 2.98487C48.9683 3.07578 49.2046 3.16499 49.4862 3.25147C49.7678 3.3383 50.0759 3.43567 50.4096 3.54395C50.7433 3.65257 51.0507 3.80409 51.3333 3.99919C51.6143 4.19429 51.8509 4.44353 52.0416 4.7469C52.2322 5.05062 52.3279 5.44082 52.3279 5.9175C52.3279 6.24709 52.2544 6.56307 52.1073 6.86679C51.9588 7.17051 51.747 7.43915 51.4695 7.67307C51.1917 7.90698 50.8563 8.09562 50.4614 8.23862C50.0667 8.38163 49.6268 8.45312 49.142 8.45312Z" fill="#001427"/>
</svg>
