<svg width="129" height="64" viewBox="0 0 129 64" fill="none" xmlns="http://www.w3.org/2000/svg">
<path d="M14.3359 36.0767V19.6028C14.3359 19.068 14.5231 18.6133 14.8975 18.2389C15.272 17.8645 15.7266 17.6597 16.2614 17.6238H19.952L23.589 31.6907L27.2261 17.6238H32.8422V36.0767H29.3122V21.2074L25.5681 36.0767H21.6635L17.866 21.2074V36.0767H14.3359Z" fill="#001427"/>
<path d="M42.5295 21.3679L39.9622 29.177H45.0969L42.5295 21.3679ZM41.6737 17.6773H44.669L51.3547 36.0767H47.3433L46.1132 32.2791H38.9459L37.7692 36.0767H33.7578L39.8552 18.9075C40.1761 18.0877 40.7821 17.6773 41.6737 17.6773Z" fill="#001427"/>
<path d="M60.9787 21.3679L58.4116 29.177H63.5462L60.9787 21.3679ZM60.1231 17.6773H63.1184L69.804 36.0767H65.7925L64.5625 32.2791H57.3952L56.2185 36.0767H52.207L58.3045 18.9075C58.6255 18.0877 59.2314 17.6773 60.1231 17.6773Z" fill="#001427"/>
<path d="M74.4538 25.7003H78.8931C79.856 25.7003 80.5688 25.5047 81.0326 25.112C81.4955 24.72 81.7279 24.1141 81.7279 23.2934C81.7279 22.4736 81.4955 21.8676 81.0326 21.4748C80.6047 21.0469 79.9629 20.833 79.1071 20.833H74.4538V25.7003ZM70.6562 36.0767V19.6028C70.6562 19.068 70.8434 18.6133 71.2178 18.2389C71.5923 17.8645 72.0469 17.6773 72.5816 17.6773H79.5884C81.585 17.6773 83.0651 18.1052 84.0278 18.961C85.0257 19.8527 85.5254 21.1539 85.5254 22.8655C85.5254 24.007 85.2756 24.9514 84.7767 25.7003C84.3487 26.4139 83.671 26.9305 82.7441 27.2514C83.5641 27.5372 84.1348 27.9651 84.4556 28.5351C84.7767 29.0699 84.9722 29.9792 85.0441 31.2629L85.151 33.4559V34.1513C85.151 34.4011 85.1686 34.6325 85.2045 34.8464C85.3114 35.4883 85.5254 35.8986 85.8464 36.0767H81.6744C81.4955 35.7207 81.3886 35.3463 81.3535 34.9535C81.2816 34.3835 81.2465 33.9907 81.2465 33.7767L81.193 31.7979C81.1212 30.728 80.9073 29.9617 80.5511 29.4979C80.1585 29.1059 79.4631 28.9095 78.4652 28.9095H74.4538V36.0767H70.6562Z" fill="#001427"/>
<path d="M95.3655 21.3679L92.7982 29.177H97.9328L95.3655 21.3679ZM94.5097 17.6773H97.505L104.191 36.0767H100.179L98.9491 32.2791H91.7819L90.6052 36.0767H86.5938L92.6912 18.9075C93.0121 18.0877 93.618 17.6773 94.5097 17.6773Z" fill="#001427"/>
<path d="M110.346 36.0767L105.051 17.6773H108.955L112.111 30.6745L114.785 17.6773H118.85L121.471 30.6745L124.306 19.068C124.52 18.1411 125.143 17.6773 126.178 17.6773H128.531L123.29 36.0767H119.652L116.818 21.9562L113.929 36.0767H110.346Z" fill="#001427"/>
<path d="M4.24761 22.4068C4.24761 12.2317 12.4962 3.9831 22.6713 3.9831C29.1585 3.9831 34.8583 7.33888 38.141 12.4063C35.2265 5.28528 28.232 0.266747 20.0619 0.266747C9.27548 0.266747 0.53125 9.01098 0.53125 19.7974C0.53125 27.9675 5.54978 34.962 12.6707 37.8765C7.60339 34.5939 4.24761 28.8941 4.24761 22.4068Z" fill="#001427"/>
<path d="M2.27088 21.4182C2.27088 10.6973 10.9619 2.00622 21.6829 2.00622C26.9904 2.00622 31.7984 4.13832 35.3027 7.5902C31.7234 3.12714 26.2281 0.266587 20.0619 0.266587C9.27548 0.266587 0.53125 9.01082 0.53125 19.7973C0.53125 25.9636 3.3918 31.4586 7.85487 35.0381C4.40298 31.5338 2.27088 26.7258 2.27088 21.4182Z" fill="#001427"/>
<path d="M116.836 36.5895C109.743 46.3558 91.2464 55.3421 67.8815 55.1965C44.6149 55.0516 26.9168 45.9453 20.0703 36.7949C20.5873 36.7953 20.6989 37.0796 20.9264 37.2543C28.8656 43.3478 38.4752 47.9892 50.5128 50.4082C66.4641 53.6137 81.7938 52.4785 96.4537 47.4987C104.302 44.8325 111.003 41.2949 116.474 36.8536C116.587 36.7618 116.715 36.6773 116.836 36.5895Z" fill="#001427"/>
<path d="M26.6333 14.9703C26.6333 14.9703 28.9412 13.028 30.8831 13.521C32.825 14.0141 34.0786 16.1614 35.6983 15.2686C37.3179 14.3758 35.2342 12.156 32.4228 11.5006C29.6114 10.8451 26.75 12.1341 25.6883 13.6611C24.6266 15.188 25.7557 15.7941 26.6333 14.9703Z" fill="#001427"/>
</svg>
