<svg width="487" height="72" viewBox="0 0 487 72" fill="none" xmlns="http://www.w3.org/2000/svg">
<path d="M7.4304 44.8456C5.04 44.8456 2.5056 44.0392 0.72 42.5992L2.5344 39.6904C3.8592 40.6408 5.5296 41.3608 7.5168 41.3608C8.64 41.3608 9.4464 40.9 9.4464 40.2376C9.4464 39.316 8.352 39.028 6.8256 38.6248C3.7728 37.876 1.4112 37.0408 1.3824 34.1032C1.3536 31.2808 3.6864 29.2648 7.2 29.2648C9.3312 29.2648 11.4336 30.0136 13.0752 31.108L11.376 34.1032C10.0224 33.268 8.4672 32.7784 7.2 32.7784C6.1632 32.7784 5.4432 33.1528 5.4432 33.6712C5.4432 34.4776 6.048 34.708 8.064 35.2552C10.6272 35.9176 13.4784 36.7816 13.4784 40.036C13.4784 42.9736 11.088 44.8456 7.4304 44.8456ZM24.133 40.8136L25.141 43.5496C24.277 44.3272 22.9234 44.8456 21.7138 44.8456C19.093 44.8456 17.2498 42.9736 17.2498 40.2952V33.0088H15.205V29.6104H17.2498V25.5208H21.2818V29.6104H24.5074V33.0088H21.2818V39.6328C21.2818 40.612 21.9154 41.3032 22.693 41.3032C23.269 41.3032 23.845 41.1016 24.133 40.8136ZM37.6528 29.6104H41.8576V44.5H37.6528V42.628C36.76 43.9816 35.0896 44.8456 33.16 44.8456C29.9344 44.8456 27.6304 42.4552 27.6304 39.0856V29.6104H31.6912V38.1928C31.6912 40.036 32.8432 41.3032 34.5136 41.3032C36.2704 41.3032 37.624 40.036 37.624 38.4232L37.6528 38.5096V29.6104ZM56.5819 24.3688H60.7867V44.5H56.5819V42.3688C55.4011 43.924 53.6731 44.8456 51.5707 44.8456C47.5963 44.8456 44.7163 41.62 44.7163 37.0408C44.7163 32.4904 47.5963 29.2648 51.5707 29.2648C53.6731 29.2648 55.4011 30.1864 56.5819 31.7416V24.3688ZM52.7803 41.3032C54.9979 41.3032 56.5819 39.5464 56.5819 37.0408C56.5819 34.564 54.9979 32.8072 52.7803 32.8072C50.4475 32.8072 48.8059 34.564 48.8059 37.0408C48.8059 39.5464 50.4475 41.3032 52.7803 41.3032ZM66.58 27.5656C65.284 27.5656 64.276 26.5288 64.276 25.2616C64.276 24.0808 65.284 23.0152 66.58 23.0152C67.8184 23.0152 68.8264 24.0808 68.8264 25.2616C68.8264 26.5288 67.8184 27.5656 66.58 27.5656ZM64.4488 44.5V29.6104H68.6536V44.5H64.4488ZM79.6396 44.8456C75.2044 44.8456 71.4892 41.2744 71.4892 37.0408C71.4892 32.8072 75.2044 29.2648 79.6396 29.2648C84.046 29.2648 87.7324 32.8072 87.7324 37.0408C87.7324 41.2744 84.046 44.8456 79.6396 44.8456ZM79.6396 41.3032C81.8572 41.3032 83.7292 39.3448 83.7292 37.0408C83.7292 34.7368 81.8572 32.8072 79.6396 32.8072C77.3932 32.8072 75.5212 34.7368 75.5212 37.0408C75.5212 39.3448 77.3932 41.3032 79.6396 41.3032Z" fill="#001427"/>
<g clip-path="url(#clip0_2840_16597)">
<path d="M424.804 24.2561H418.49C419.335 25.4356 419.781 26.8489 419.763 28.2938C419.763 33.9843 413.172 40.602 404.693 40.602C403.915 40.6018 403.138 40.5433 402.369 40.4262L399.82 42.6147L408.796 48.1395C413.78 51.2018 416.439 53.3371 416.439 56.0725C416.439 61.7067 407.798 63.8928 401.316 63.893C392.176 63.893 386.027 61.3906 386.027 57.5086C386.027 54.2266 391.122 52.3112 397.769 50.5055L395.776 45.2004L401.703 40.2855C397.935 39.4093 396.052 36.7832 396.052 33.6111C396.052 27.9207 402.645 21.2467 411.121 21.2467C414.39 21.2467 416.772 22.2863 418.211 23.9256L420.431 19.1145H427.244L424.804 24.2561ZM398.212 50.8869C394.001 52.4168 391.673 53.787 391.673 56.359C391.673 60.1875 396.826 63.1969 403.088 63.1969C407.081 63.1968 410.847 62.3761 410.847 60.1312C410.847 58.7648 409.349 57.5088 404.638 54.7172L398.212 50.8869ZM347.253 21.2344C349.245 21.2344 351.074 22.3284 351.081 24.7904C351.081 26.3229 350.194 28.5651 347.977 31.4104L334.238 49.1361L321.884 63.1406H312.854L326.305 48.041L325.862 23.2664L321.431 24.0328L321.652 23.4316L334.068 21.6264L334.398 47.9338L346.919 31.6846L342.765 24.8467C342.959 23.8173 343.517 22.889 344.338 22.2275C345.16 21.5663 346.193 21.2139 347.253 21.2344ZM438.487 28.4027L435.771 35.7328H435.884C439.924 27.6363 444.471 21.2344 450.011 21.2344C453.834 21.2346 455.662 23.9143 455.657 27.6504C455.657 38.099 445.63 50.2974 439.313 50.298C436.711 50.298 434.328 49.0421 434.328 46.3605C434.328 44.0056 436.654 42.4187 438.759 42.5285L441.53 49.4244C445.241 45.4857 447.125 36.2409 447.125 29.8406C447.125 26.6633 446.348 24.4758 445.13 24.4758C442.636 24.4761 437.651 33.174 434.713 39.5209C433.492 42.0242 431.498 47.0581 430.833 48.9709L422.8 50.1205L437.204 8.65371H433.273L433.493 8.10703H445.634L438.487 28.4027ZM174.402 49.8937C173.794 50.1517 172.967 50.2962 171.816 50.2963C167.825 50.2963 166.771 48.1091 168.988 42.5285L174.752 27.9211L171.094 25.0225L171.213 24.7904L185.784 20.918C185.784 20.918 175.26 47.7208 174.402 49.8937ZM260.115 41.8605H260.225C262.385 37.7027 264.767 33.6007 266.65 30.4822C270.196 24.6818 273.022 21.2361 277.566 21.2361C282.054 21.2364 283.602 24.9005 280.444 31.5844C280.444 31.5844 272.6 48.1432 271.649 50.1627C270.985 50.2527 270.316 50.2979 269.646 50.2945C265.657 50.2945 264.327 47.8903 266.875 42.5268L273.358 28.7965C275.572 24.1454 275.24 23.3244 274.133 23.3244C272.142 23.3245 269.423 27.154 266.71 31.6951C262.833 38.0393 258.787 45.9717 257.845 48.927L249.309 50.1311L257.954 27.8666L254.354 25.0207L254.462 24.801L268.702 20.9162L260.115 41.8605ZM140.024 8.10703L127.946 43.9383C127.629 44.8854 126.075 49.6497 125.96 49.9939H125.939C124.997 50.1921 124.035 50.2885 123.072 50.2787C118.527 50.2787 119.138 47.3791 120.855 42.5109L122.46 38.0232H122.35C118.196 46.291 113.93 50.284 108.832 50.284C104.841 50.2839 103.4 47.4374 103.4 44.2652C103.401 34.2074 114.975 21.1823 122.735 21.1816C124.951 21.1816 126.171 22.3845 126.282 24.4072H126.336L131.655 8.65371H126.336L126.558 8.10703H140.024ZM301.328 26.2125L297.894 35.7328H298.004C302.213 27.4728 306.867 21.2344 312.408 21.2344C316.23 21.2348 317.614 23.9146 317.62 27.0404C317.62 36.9886 303.991 50.2834 294.573 50.284C289.087 50.284 285.819 47.7675 288.201 40.7109L299.115 8.65371H295.179L295.403 8.10703H307.537L301.328 26.2125ZM373.399 8.10879C373.399 8.10879 359.248 48.6019 358.753 50.0273C357.848 50.2065 356.926 50.2934 356.003 50.284C352.015 50.2839 351.239 48.096 353.177 42.4617L364.977 8.65371H361.045L361.264 8.10703L373.399 8.10879ZM381.875 43.926C381.681 44.4368 379.948 48.9666 379.526 50.0572C378.674 50.2159 377.806 50.2915 376.939 50.284C372.948 50.2837 371.896 48.0967 374.112 42.5162L379.876 27.9088L376.218 25.0102L376.329 24.7904L390.905 20.8934L381.875 43.926ZM241.946 21.2344C245.657 21.2344 248.374 23.2595 248.32 26.1018C248.263 28.4541 246.766 30.6978 244.438 31.957L232.306 32.393C231.565 34.7319 231.173 37.1653 231.142 39.6158C231.034 44.4303 232.417 48.2026 235.352 48.2027C238.511 48.2027 241.724 44.9214 244.106 39.0674L244.658 39.2326C242.002 46.1798 237.957 50.2822 230.81 50.2822C225.436 50.2821 222.391 47.164 222.445 41.7498C222.61 31.3545 233.358 21.2344 241.946 21.2344ZM214.927 21.2344C216.853 21.2346 218.789 22.4376 218.797 26.4287C218.797 37.534 209.701 50.2804 198.579 50.2805C194.257 50.2805 191.929 47.9839 191.929 44.5359C191.929 38.5286 197.858 32.4002 203.176 28.9547H191.651L188.661 34.0436H188.051L194.59 22.1186H209.546C205.392 26.8769 198.967 33.3312 198.967 38.6947C198.968 42.0302 200.91 43.8891 204.399 43.8891C208.998 43.8888 215.591 39.6701 217.642 31.6301L211.103 25.6658C210.992 22.8767 212.71 21.2344 214.927 21.2344ZM478.096 22.1115L486.018 22.101L484.19 26.3672H476.252C476.214 26.4545 466.145 49.8658 466.121 50.0836C465.353 50.214 464.574 50.2782 463.794 50.2734C460.028 50.2734 458.752 47.9765 461.135 42.5057L468.118 26.3672H461.971L463.799 22.101H470.008L472.944 15.3176H480.977L478.096 22.1115ZM148.55 42.1875H148.715C150.82 37.5931 153.535 31.9584 155.196 29.1129C158.465 23.3692 160.571 21.2892 163.837 21.2889C166.109 21.2889 167.442 22.8774 167.434 24.9539C167.434 27.5259 165.494 29.7687 162.059 30.208L159.512 24.191C157.96 25.6112 155.91 28.8949 153.748 33.0504C151.092 38.2144 148.707 43.5104 146.602 48.9164L138.126 50.1205L146.769 27.8561L143.169 25.0102L143.278 24.7904L157.467 20.9057L148.55 42.1875ZM307.423 24.4635C304.818 24.4635 299.776 33.1062 296.951 39.4506C294.235 45.4145 293.463 49.6266 296.065 49.6266C301.939 49.6257 308.53 34.5297 308.53 27.0896C308.53 25.3401 308.307 24.4635 307.423 24.4635ZM123.239 21.7811C117.808 21.7818 112.376 35.5686 112.376 43.9383C112.376 45.9612 112.653 47.7141 113.763 47.7141C116.753 47.7127 125.728 32.9966 125.733 25.2299C125.733 22.8214 124.623 21.7811 123.239 21.7811ZM409.126 21.89C405.581 21.8911 403.809 28.6743 403.809 34.091C403.809 38.0295 404.694 40.0025 406.634 40.0025C410.234 40.0025 412.009 33.2724 412.009 27.8578C412.009 23.9168 411.12 21.8936 409.126 21.8936V21.89ZM241.946 21.7266C238.18 21.7266 234.411 26.2121 232.528 31.9025L234.245 31.8463C239.617 31.7365 244.154 26.6497 244.217 23.6971C244.217 22.3843 243.387 21.7266 241.946 21.7266ZM187.503 15.5654H171.215L172.822 10.8633H189.11L187.503 15.5654ZM392.626 15.5654H376.338L377.944 10.8633H394.23L392.626 15.5654Z" fill="#001427"/>
</g>
<defs>
<clipPath id="clip0_2840_16597">
<rect width="382.618" height="72" fill="white" transform="translate(103.4)"/>
</clipPath>
</defs>
</svg>
