<svg width="344" height="64" viewBox="0 0 344 64" fill="none" xmlns="http://www.w3.org/2000/svg">
<g clip-path="url(#clip0_2914_303)">
<path fill-rule="evenodd" clip-rule="evenodd" d="M158.725 26.0601V24.2296C158.725 16.6476 160.486 15.1095 169.131 15.1095C179.222 15.1095 179.222 15.7594 179.222 21.8791C179.222 24.9011 178.93 26.2117 178.101 26.7966C176.979 27.6088 174.389 27.804 170.555 27.804H168.828H158.703V26.0276L158.725 26.0601ZM159.577 43.9427L159.443 43.0112C159.443 43.0112 159.252 41.744 159.084 39.4478H171.631C186.465 39.4478 191.073 36.7723 191.073 20.0486C191.073 7.46254 185.467 3 169.68 3C146.369 3 146.369 15.1853 146.369 33.4579C146.369 56.2038 152.088 64.3382 168.234 64.3382H190.883V51.6979H168.761C160.699 51.6979 160.419 49.8566 159.6 43.9752L159.577 43.9427ZM82.694 31.1075L64.8102 24.2729C62.9825 23.5688 62.5676 23.1356 62.5676 20.7635C62.5676 17.1675 64.5633 15.1637 68.1737 15.1637H90.1167L98.526 3.24913H69.8895C56.4345 3.24913 50.3796 8.92478 50.3796 21.8683C50.3796 28.6054 52.1401 32.0931 56.67 34.3894L77.7943 42.5347C80.8887 43.5528 81.158 43.7803 81.158 46.2822C81.158 49.8891 79.162 51.6979 75.5516 51.6979H51.03V64.3923H73.8697C87.3246 64.3923 93.3681 58.4784 93.3681 45.5456C93.3681 35.5051 89.1188 33.2195 82.694 31.1075ZM197.173 3.2383H224.173C236.484 3.2383 243.592 10.712 243.592 23.5363V64.3816H231.416V26.6883C231.416 16.5068 226.583 15.1637 222.625 15.1637H209.339V64.3816H197.173V3.2383ZM12.3806 26.0601V26.0276V24.2296C12.3806 16.6476 14.1297 15.1095 22.7857 15.1095C32.8769 15.1095 32.8769 15.7594 32.8769 21.8791C32.8769 24.9011 32.5743 26.2117 31.7556 26.7966C30.6345 27.6088 28.0332 27.804 24.2097 27.804H22.483H12.3806V26.0601ZM13.2551 43.9427L13.1094 43.0112C13.1094 43.0112 12.93 41.744 12.7618 39.4478H25.3085C40.1425 39.4478 44.7508 36.7723 44.7508 20.0486C44.7508 7.50587 39.1447 3.04333 23.3576 3.04333C0.046875 3.04333 0.046875 15.2286 0.046875 33.5011C0.046875 56.2472 5.76522 64.3816 21.9111 64.3816H44.5604V51.6979H22.4718C14.3988 51.6979 14.1297 49.8566 13.3112 43.9752L13.2551 43.9427ZM112.643 24.2729L130.583 31.1075C137.007 33.2195 141.257 35.5051 141.257 45.5456C141.257 58.4784 135.213 64.3923 121.758 64.3923H93.3348L100.062 51.6979H123.44C127.051 51.6979 129.046 49.8891 129.046 46.2822C129.046 43.7803 128.766 43.5528 125.683 42.5347L104.547 34.3894C100.04 32.0931 98.2681 28.6054 98.2681 21.8683C98.2681 8.92478 104.323 3.24913 117.778 3.24913H146.65L138.229 15.1637H116.006C112.396 15.1637 110.4 17.1675 110.4 20.7635C110.4 23.1356 110.815 23.5688 112.643 24.2729ZM281.232 31.1075L263.36 24.2729C261.521 23.5688 261.117 23.1356 261.117 20.7635C261.117 18.2181 262.093 15.1637 266.722 15.1637H289.957L298.376 3.24913H268.44C254.939 3.23827 248.963 8.91393 248.963 21.8574C248.963 28.5947 250.724 32.0822 255.253 34.3784L276.379 42.5238C279.461 43.5419 279.741 43.7694 279.741 46.2715C279.741 49.8782 277.757 51.6872 274.136 51.6872H250.443V64.3923H272.408C285.864 64.3923 291.917 58.4784 291.917 45.5456C291.917 35.5051 287.659 33.2195 281.232 31.1075ZM309.61 24.2296V26.0601L309.533 26.0276V27.804H319.701H321.44C325.264 27.804 327.853 27.6088 328.976 26.7966C329.805 26.2117 330.096 24.9011 330.096 21.8791C330.096 15.7594 330.096 15.1095 320.005 15.1095C311.36 15.1095 309.61 16.6476 309.61 24.2296ZM310.261 43.0112L310.408 43.9427L310.451 43.9752C311.259 49.8566 311.539 51.6979 319.6 51.6979H341.779V64.3816H319.13C302.994 64.3816 297.267 56.2472 297.267 33.5011C297.267 15.2286 297.266 3.04333 320.576 3.04333C336.418 3.04333 342.026 7.50587 341.904 20.0486C341.904 36.7723 337.283 39.4478 322.448 39.4478H309.915C310.083 41.744 310.261 43.0112 310.261 43.0112Z" fill="#001427"/>
</g>
<defs>
<clipPath id="clip0_2914_303">
<rect width="344" height="64" fill="white"/>
</clipPath>
</defs>
</svg>
