<svg width="40" height="40" viewBox="0 0 40 40" fill="none" xmlns="http://www.w3.org/2000/svg">
<path d="M29.7939 12.502C38.8406 12.5022 40.0008 19.2474 40.001 25.124V39.2549C40.0009 39.6355 39.6922 39.9443 39.3115 39.9443H31.3125C30.9315 39.9443 30.6231 39.6357 30.623 39.2549V26.7285C30.623 23.0214 30.3752 20.591 27.0684 20.5869C23.7118 20.5869 23.0391 22.8533 23.0391 26.5098V39.2549C23.039 39.6354 22.7302 39.9441 22.3496 39.9443H14.3535C13.9728 39.9442 13.6641 39.6356 13.6641 39.2549V13.4951C13.6641 13.1142 13.9728 12.8058 14.3535 12.8057H22.0303C22.4111 12.8057 22.7207 13.1141 22.7207 13.4951V14.8477C24.2913 13.3936 26.8654 12.502 29.7939 12.502ZM9.33301 12.8047C9.71379 12.8047 10.0225 13.1131 10.0225 13.4941V39.2539C10.0225 39.6346 9.71386 39.9434 9.33301 39.9434H1.33008C0.949401 39.9433 0.640625 39.6347 0.640625 39.2539V13.4941C0.640728 13.1132 0.949464 12.8047 1.33008 12.8047H9.33301ZM5.33105 0C8.26952 0 10.6601 2.39153 10.6602 5.33105C10.6602 8.27092 8.26969 10.6631 5.33105 10.6631C2.39151 10.6629 0 8.27079 0 5.33105C0.00218132 2.39134 2.39368 0.000197289 5.33105 0Z" fill="#001427"/>
</svg>
