<svg width="40" height="28" viewBox="0 0 40 28" fill="none" xmlns="http://www.w3.org/2000/svg">
<path d="M39.1637 4.37275C38.7028 2.65065 37.3494 1.29734 35.6273 0.836354C32.5092 2.50352e-07 20 0 20 0C20 0 7.49096 2.50352e-07 4.37274 0.836354C2.65065 1.29734 1.29734 2.65065 0.836354 4.37275C2.50352e-07 7.49096 0 14.0007 0 14.0007C0 14.0007 2.50352e-07 20.5105 0.836354 23.6287C1.29734 25.3508 2.65065 26.7041 4.37274 27.165C7.49096 28.0014 20 28.0014 20 28.0014C20 28.0014 32.5092 28.0014 35.6273 27.165C37.3494 26.7041 38.7028 25.3508 39.1637 23.6287C40.0001 20.5105 40.0001 14.0007 40.0001 14.0007C40.0001 14.0007 39.9968 7.49096 39.1637 4.37275Z" fill="#001427"/>
<path d="M15.9961 20.0007L26.388 14.0013L15.9961 8.00195V20.0007Z" fill="white"/>
</svg>
