<svg width="141" height="64" viewBox="0 0 141 64" fill="none" xmlns="http://www.w3.org/2000/svg">
<g clip-path="url(#clip0_2892_320)">
<path d="M50.419 23.545C57.0008 15.6921 63.5915 7.84731 70.1753 -0.00236893C76.0528 6.88771 81.9201 13.7847 87.7924 20.6759C88.2028 21.1504 88.5836 21.6529 89.0441 22.0826C89.0515 22.1567 89.0651 22.3075 89.0731 22.3817C88.5591 22.3619 88.0474 22.3408 87.5346 22.319C87.5107 22.7156 87.4862 23.1121 87.4634 23.5083C88.1356 23.5523 88.8403 23.4874 89.4869 23.718C90.1068 24.0019 90.072 24.7903 90.1033 25.364C90.1585 30.2766 90.1489 35.1892 90.1312 40.1025C90.1067 40.7717 90.076 41.6248 89.4237 42.0046C88.8221 42.2563 88.1482 42.1491 87.5146 42.1729C87.4998 42.582 87.4862 42.9918 87.4765 43.4003C89.8307 43.242 92.19 43.2847 94.5442 43.4325C94.5425 43.0285 94.5425 42.6238 94.5442 42.2219C93.8657 42.1629 93.1422 42.2158 92.5127 41.9184C92.0192 41.5977 92.0016 40.939 91.9794 40.4115C91.9868 35.7829 91.9743 31.1541 91.9851 26.5244C94.7081 32.2309 97.4095 37.9485 100.125 43.6599C100.487 43.6582 100.849 43.6582 101.213 43.6599C101.936 42.0973 102.652 40.5298 103.376 38.9674C104.497 40.3086 105.653 41.6189 106.761 42.9673C106.763 43.069 106.763 43.2713 106.763 43.3713C106.842 43.3742 107.001 43.3824 107.081 43.3853C108.471 44.8733 109.737 46.4826 111.08 48.0194C84.0124 48.0227 56.9456 48.0216 29.8789 48.0194C31.1631 46.4848 32.4494 44.9506 33.7387 43.4198C36.0655 43.5065 38.3935 43.4781 40.7169 43.3258C40.8381 41.5988 40.9461 39.8695 41.0508 38.1414C40.6455 38.1397 40.2413 38.1385 39.836 38.1385C39.5797 39.099 39.4309 40.094 39.1025 41.0345C37.9198 41.5582 36.5787 41.5082 35.3089 41.5381C38.8066 37.3926 42.2793 33.2259 45.7769 29.0788C45.7829 32.7017 45.7996 36.3238 45.784 39.9473C45.7496 40.6321 45.7936 41.4881 45.174 41.9439C44.5558 42.2886 43.8099 42.1552 43.1326 42.1869C43.1326 42.5905 43.1326 42.9945 43.1344 43.4003C45.5081 43.2557 47.8874 43.2697 50.2609 43.3898C50.2595 42.9856 50.2578 42.5831 50.2578 42.1807C49.6125 42.1414 48.929 42.2085 48.3232 41.9379C47.7157 41.6204 47.6508 40.86 47.6488 40.2519C47.6595 35.8513 47.6539 31.4492 47.6539 27.0486C51.8497 32.1809 56.024 37.3332 60.3778 42.3359C60.7666 42.755 61.1309 43.2786 61.72 43.4187C62.5129 43.6321 63.3359 43.6949 64.1482 43.7782C64.0844 37.54 64.0406 31.3005 64.1117 25.0618C64.1317 24.5929 64.1652 24.0006 64.6394 23.7513C65.2803 23.4814 65.9997 23.5406 66.6799 23.4763C66.6799 23.0665 66.6799 22.6581 66.6811 22.2492C64.3155 22.494 61.9346 22.4408 59.565 22.2786C59.5667 22.6748 59.5701 23.0725 59.573 23.469C60.2532 23.5416 60.9795 23.4856 61.6141 23.7789C62.1531 24.1026 62.156 24.8081 62.1805 25.3626C62.1679 29.3912 62.1844 33.4205 62.1696 37.4488C59.6868 34.6307 57.2171 31.8014 54.7802 28.9435C53.3101 27.1578 51.8726 25.3459 50.419 23.545Z" fill="#001427"/>
<path d="M67.0811 22.25L67.082 21.8047L66.6396 21.8506C64.3064 22.092 61.9505 22.0404 59.5928 21.8789L59.1631 21.8496L59.165 22.2803C59.1673 22.6763 59.1694 23.0746 59.1729 23.4717L59.1768 23.8281L59.5303 23.8662C59.7116 23.8856 59.8943 23.8958 60.0674 23.9053C60.2437 23.915 60.4102 23.9234 60.5742 23.9385C60.8918 23.9676 61.1711 24.0217 61.4219 24.1328C61.5596 24.2217 61.6478 24.362 61.7021 24.5801C61.76 24.8127 61.7681 25.0735 61.7803 25.3604L61.7764 31.4053C61.777 33.0652 61.7747 34.7248 61.7705 36.3887C59.526 33.8362 57.2937 31.2748 55.0889 28.6895C53.6207 26.9061 52.1859 25.0991 50.7305 23.2949L50.7314 23.2939C50.424 22.9106 50.0619 22.4564 49.7529 22.0713L49.6221 21.9072L49.4121 21.9229C47.352 22.0747 45.282 22.0164 43.1982 21.9209L42.7793 21.9014V22.3203C42.7793 22.7187 42.7821 23.1172 42.7832 23.5137L42.7842 23.8809L43.1504 23.9111C43.468 23.9371 43.799 23.9439 44.0947 23.958C44.3927 23.9722 44.6737 23.9944 44.9453 24.0449C45.0563 24.0744 45.1415 24.1505 45.2109 24.3076C45.2851 24.4755 45.3205 24.695 45.333 24.9141C45.3843 26.2969 45.3707 27.6799 45.377 29.0801C45.383 32.6981 45.4 36.3107 45.3848 39.9258L45.3623 40.4609C45.3529 40.6308 45.3373 40.7937 45.3057 40.9531C45.2475 41.2462 45.1427 41.4601 44.9551 41.6064C44.7315 41.7246 44.4714 41.77 44.1602 41.7822C43.999 41.7886 43.8344 41.7859 43.6572 41.7832C43.4841 41.7806 43.298 41.7785 43.1143 41.7871L42.7324 41.8047V42.1865C42.7324 42.5897 42.7333 42.9953 42.7354 43.4014L42.7373 43.8242L43.1592 43.7988C45.5144 43.656 47.8796 43.6696 50.2412 43.7891L50.6621 43.8096L50.6611 43.3877C50.66 42.9825 50.6582 42.5812 50.6582 42.1797V41.8037L50.2822 41.7812C50.1115 41.7708 49.9394 41.7671 49.7773 41.7637C49.6122 41.7602 49.4559 41.7564 49.3027 41.7461C49.0013 41.7259 48.7362 41.6812 48.498 41.5771C48.3246 41.4825 48.2125 41.3213 48.1416 41.0869C48.067 40.8399 48.0496 40.5466 48.0488 40.25C48.0586 36.224 48.0545 32.1962 48.0537 28.1709C52.0101 33.0137 55.9634 37.8726 60.0762 42.5977L60.084 42.6064C60.249 42.7848 60.4746 43.061 60.6992 43.2725C60.9368 43.4961 61.2329 43.7096 61.6162 43.8037C62.4471 44.0277 63.3122 44.0935 64.1074 44.1758L64.5527 44.2227L64.5488 43.7744C64.4851 37.5401 64.4403 31.3081 64.5117 25.0781L64.5342 24.7363C64.5455 24.6289 64.5618 24.5285 64.5889 24.4365C64.6379 24.27 64.71 24.1715 64.8135 24.1123C65.0712 24.0074 65.3555 23.9596 65.6758 23.9346C65.8401 23.9217 66.0067 23.9151 66.1826 23.9072C66.3554 23.8995 66.5369 23.8911 66.7178 23.874L67.0801 23.8398V23.4756C67.0801 23.0654 67.0799 22.6581 67.0811 22.25Z" fill="#001427" stroke="white" stroke-width="0.8"/>
<path d="M0 22.2765C3.26463 22.4555 6.53746 22.4297 9.80548 22.3221V23.5099C9.0246 23.5917 7.85554 23.2546 7.45488 24.1582C7.52467 24.7385 7.71301 25.2986 7.92225 25.8407C9.6218 29.9649 11.3118 34.0913 13.0098 38.2139C14.3368 34.8717 15.617 31.511 16.97 28.1792C17.4026 27.0497 17.8853 25.9334 18.2275 24.7718C18.4098 24.286 18.0787 23.7544 17.588 23.643C16.9759 23.5067 16.3429 23.5234 15.7202 23.4703V22.3205C18.0905 22.4586 20.4705 22.4439 22.842 22.3237V23.4536C22.4351 23.5054 22.0219 23.5127 21.6202 23.5961C21.0623 23.7782 20.7242 24.3174 20.4994 24.8263C17.9342 31.0176 15.374 37.2107 12.8135 43.4033H10.5054C8.07741 37.6021 5.64323 31.8025 3.22572 25.9958C2.90822 25.2392 2.61495 24.4119 1.95304 23.8814C1.40475 23.44 0.657685 23.5387 0.00111171 23.4703C0.00111171 23.0725 0 22.6743 0 22.2765Z" fill="#001427"/>
<path d="M33.7236 43.8203C35.7709 43.897 37.8195 43.8832 39.8652 43.7764L40.7422 43.7256L41.0908 43.7021L41.1152 43.3545C41.2368 41.6261 41.3447 39.8951 41.4492 38.166L41.4746 37.7432L41.0518 37.7422C40.6463 37.7404 40.2415 37.7393 39.835 37.7393H39.5283L39.4492 38.0352C39.3182 38.5256 39.2136 39.0302 39.1055 39.5068C39.0095 39.9301 38.9068 40.3392 38.7783 40.7354C37.7275 41.1468 36.5483 41.1093 35.3008 41.1387C34.1476 41.1402 32.9943 41.127 31.8408 41.1025V33.6562C33.368 33.5934 34.8285 33.4729 36.2949 33.6436H36.2988C36.5154 33.6666 36.7419 33.877 36.833 34.1787C36.9873 34.724 37.0115 35.2834 37.0801 35.9229L37.1191 36.2812L37.4795 36.2803C37.9136 36.2791 38.3479 36.2791 38.7832 36.2803L39.2188 36.2812L39.1826 35.8477C38.9994 33.6498 39.0206 31.4396 39.1367 29.2256L39.1592 28.8047H37.1191L37.0781 29.1582C36.9984 29.8399 36.9847 30.4223 36.8457 31.0186V31.0195C36.8208 31.128 36.6895 31.239 36.5205 31.2285L36.5068 31.2275H36.4941C34.9434 31.2298 33.4007 31.1905 31.8408 31.167V24.584C33.4199 24.4713 35.0092 24.4964 36.6133 24.5342C36.8028 24.5552 36.9976 24.57 37.1797 24.584C37.3762 24.599 37.5628 24.6143 37.7432 24.6406C38.0463 24.6849 38.3093 24.7573 38.5342 24.8848C38.5966 25.2035 38.6359 25.5317 38.668 25.874C38.7046 26.2652 38.7358 26.6864 38.792 27.0977L38.8389 27.4434H40.6357L40.6729 27.084C40.8109 25.713 40.9628 24.3441 41.1338 22.9785H41.1328C41.1671 22.7959 41.1504 22.5863 41.0625 22.4053C40.9637 22.2021 40.7596 22.0144 40.457 22.0068L40.458 22.0059C38.7217 21.8663 36.9799 21.9174 35.2715 21.958C31.6862 22.043 28.1022 22.0626 24.5254 21.9248L24.1094 21.9082V23.792L24.46 23.8359C24.7841 23.8763 25.1514 23.8968 25.4463 23.9258C25.7549 23.9561 26.0387 23.9996 26.3057 24.083C26.5432 24.1712 26.7068 24.4876 26.6924 24.8984L26.6914 24.9062V24.915C26.7256 29.9233 26.7111 34.9298 26.7197 39.9424L26.7148 40.3438C26.7066 40.7334 26.6821 41.0924 26.583 41.4326L26.5801 41.4404L26.5781 41.4492C26.5347 41.6242 26.4141 41.7444 26.165 41.875C26.0367 41.9423 25.9025 41.9986 25.7412 42.0703C25.5894 42.1378 25.4161 42.2189 25.2588 42.3232L25.0811 42.4414L25.0801 42.6543C25.0788 42.9029 25.0788 43.1539 25.0801 43.4043L25.082 43.8301L25.5068 43.8018C28.2332 43.6182 30.97 43.7069 33.7217 43.8203H33.7236Z" fill="#001427" stroke="white" stroke-width="0.8"/>
<path d="M77.4072 43.793C79.6118 43.862 81.8352 43.9243 84.0615 43.792L85.0156 43.7236L85.2617 43.7021L85.3525 43.4727C85.4951 43.1146 85.5107 42.7215 85.5361 42.4473L85.5371 42.4365C85.6326 41.0148 85.7341 39.5886 85.8213 38.1631L85.8477 37.7393H85.4219C85.0106 37.7393 84.598 37.7391 84.1865 37.7402L83.8652 37.7412L83.7969 38.0557C83.5998 38.9628 83.3955 39.8619 83.1533 40.7471C82.2604 41.0774 81.2658 41.1033 80.2246 41.1377C78.8871 41.1421 77.5507 41.1264 76.2139 41.0996C76.2115 38.6201 76.2115 36.1396 76.2139 33.6592C77.6754 33.5991 79.0776 33.4887 80.4863 33.625L80.5029 33.626H80.5195C80.8237 33.63 81.1046 33.8476 81.1816 34.1357V34.1367C81.3359 34.7099 81.3659 35.2837 81.4531 35.9424L81.5 36.292L81.8525 36.29C82.2743 36.2871 82.6948 36.2835 83.1162 36.2812L83.542 36.2793L83.5127 35.8535C83.3622 33.6477 83.3858 31.4328 83.5098 29.2168L83.5342 28.7852L83.1025 28.7939C82.6771 28.803 82.2512 28.81 81.8262 28.8164L81.4775 28.8213L81.4355 29.168C81.3953 29.4979 81.3758 29.9016 81.3467 30.1982C81.3149 30.5224 81.2654 30.8159 81.165 31.0869C81.1472 31.1279 81.1162 31.1631 81.0078 31.1914C80.8788 31.225 80.726 31.2267 80.5293 31.2314C79.0898 31.2178 77.6547 31.1886 76.2129 31.1641C76.2136 28.9678 76.2061 26.778 76.2188 24.5869C77.8412 24.4762 79.4762 24.4874 81.1133 24.5449C81.2902 24.5657 81.4723 24.5805 81.6416 24.5947C81.8247 24.6101 81.9984 24.6254 82.165 24.6514C82.446 24.6952 82.6853 24.7658 82.8867 24.8857C82.9622 25.1991 83.005 25.526 83.0371 25.873C83.073 26.2607 83.0995 26.6917 83.1611 27.1064L83.2119 27.4473H83.5566C83.9136 27.4473 84.2719 27.4471 84.6309 27.4482L84.9922 27.4492L85.0303 27.0898C85.1703 25.7598 85.295 24.4433 85.4629 23.1289L85.4795 23.0117C85.4947 22.8784 85.5009 22.7027 85.46 22.5371C85.4313 22.4213 85.371 22.275 85.2393 22.1611C85.1141 22.0531 84.962 22.0095 84.8066 22.0078L84.8076 22.0059C82.816 21.8353 80.8086 21.94 78.8604 21.9717H78.8574C75.5331 22.0478 72.2075 22.0422 68.8867 21.9258L68.4629 21.9111L68.4736 22.3359C68.4827 22.7084 68.4876 23.0804 68.4922 23.4551L68.4971 23.8057L68.8457 23.8467C69.0235 23.8676 69.2016 23.8814 69.3721 23.8936C69.5453 23.9059 69.7095 23.9172 69.8721 23.9336C70.1911 23.9658 70.477 24.0183 70.7383 24.123C70.863 24.1864 70.943 24.2957 70.9932 24.4902C71.0482 24.7037 71.0513 24.9509 71.0586 25.2266C71.0842 30.179 71.0841 35.1336 71.0869 40.0889C71.0739 40.4118 71.0718 40.7001 71.0332 40.9854C70.9977 41.2471 70.9324 41.4726 70.8184 41.667C70.6781 41.781 70.5149 41.8775 70.3271 41.9727C70.2225 42.0257 70.1158 42.0759 70.002 42.1299C69.8902 42.1829 69.7725 42.2399 69.6562 42.3008L69.4395 42.4141L69.4414 42.6592C69.4443 42.91 69.4491 43.1642 69.4561 43.418L69.4668 43.8359L69.8838 43.8057C72.3794 43.6264 74.8805 43.7139 77.4072 43.793Z" fill="#001427" stroke="white" stroke-width="0.8"/>
<path d="M101.574 43.8281C102.298 42.2618 103.011 40.6998 103.736 39.1367C105.46 35.4387 107.13 31.7296 108.935 28.0859C108.952 32.1805 108.944 36.2869 109.007 40.3848L109 40.5869C108.99 40.7873 108.968 40.9807 108.918 41.1494C108.856 41.3551 108.765 41.4794 108.635 41.5488C108.352 41.6202 108.056 41.6573 107.74 41.6846C107.422 41.7121 107.052 41.732 106.71 41.7715L106.356 41.8125V42.1689C106.356 42.3161 106.357 42.4633 106.357 42.6094C106.358 42.7295 106.358 42.849 106.358 42.9697V42.9717C106.36 43.0704 106.36 43.2693 106.36 43.3711V43.7549L106.743 43.7715C106.815 43.7745 106.987 43.7821 107.062 43.7852L107.079 43.7861L107.096 43.7852C110.165 43.6473 113.244 43.6699 116.32 43.8018L116.739 43.8203L116.737 43.4004C116.736 42.9791 116.736 42.5576 116.737 42.1367L116.739 41.7686L116.372 41.7373C116.036 41.708 115.659 41.7049 115.357 41.6895C115.039 41.6731 114.75 41.6414 114.479 41.5605C114.333 41.5012 114.236 41.3817 114.171 41.1748C114.1 40.9507 114.084 40.6761 114.081 40.3994C114.084 35.3348 114.078 30.2721 114.087 25.209C114.098 24.9363 114.132 24.6574 114.22 24.4346C114.302 24.2256 114.414 24.1046 114.572 24.0508C114.856 24.0022 115.147 23.9732 115.455 23.9463C115.767 23.9191 116.098 23.8919 116.427 23.8418L116.776 23.7881L116.767 23.4346C116.756 23.0609 116.746 22.6871 116.737 22.3115L116.728 21.9004L116.317 21.9219C113.955 22.0412 111.591 22.0685 109.238 21.9238L108.958 21.9062L108.847 22.1641C108.026 24.0666 107.254 25.9592 106.315 27.7744L106.311 27.7822V27.7832C104.898 30.6803 103.508 33.588 102.115 36.4912C101.282 34.9138 100.575 33.2855 99.7695 31.6475C98.2682 28.4919 96.7678 25.3353 95.2705 22.1787L95.1602 21.9453L94.9014 21.9502C93.0729 21.9856 91.2727 22.0607 89.4717 21.998C89.433 21.9445 89.3972 21.8894 89.3584 21.8389L88.5039 20.7266L88.627 21.9639C88.2677 21.9496 87.9088 21.9346 87.5488 21.9199L87.1582 21.9043L87.1338 22.2949C87.1087 22.6917 87.0843 23.0881 87.0615 23.4854L87.0391 23.8818L87.4346 23.9072C87.6124 23.919 87.7906 23.924 87.9609 23.9277C88.1339 23.9315 88.2981 23.9348 88.4609 23.9434C88.7795 23.9602 89.0672 23.9979 89.332 24.0898C89.4796 24.1629 89.5698 24.2947 89.625 24.5254C89.6855 24.7786 89.6843 25.0541 89.7012 25.3682C89.7557 30.2735 89.7461 35.1796 89.7285 40.0879C89.7163 40.4309 89.7026 40.7655 89.624 41.0586C89.5508 41.3317 89.4327 41.5248 89.2432 41.6445C89.0156 41.7353 88.7622 41.7675 88.4697 41.7744C88.3182 41.778 88.1644 41.7753 88 41.7725C87.839 41.7697 87.6678 41.767 87.4971 41.7734L87.126 41.7871L87.1123 42.1582C87.0969 42.5688 87.0839 42.9805 87.0742 43.3906L87.0635 43.8281L87.501 43.7988C89.8329 43.6429 92.1746 43.6844 94.5166 43.8311L94.9434 43.8584L94.9414 43.4307C94.9397 43.0283 94.9397 42.6249 94.9414 42.2236L94.9434 41.8555L94.5762 41.8232C94.3969 41.8076 94.216 41.7999 94.0449 41.792C93.8708 41.7839 93.7058 41.7755 93.5439 41.7607C93.2319 41.7324 92.9562 41.6796 92.709 41.5684C92.5873 41.4815 92.5066 41.3471 92.4551 41.1445C92.3986 40.9221 92.3889 40.6699 92.377 40.3945C92.3834 36.3576 92.3756 32.3293 92.3809 28.2949C94.846 33.4708 97.2988 38.652 99.7617 43.832L99.8701 44.0615L100.125 44.0605C100.485 44.0588 100.847 44.0588 101.21 44.0605L101.467 44.0615L101.574 43.8281Z" fill="#001427" stroke="white" stroke-width="0.8"/>
<path d="M124.757 35.2073C125.785 32.6252 126.81 30.0425 127.839 27.4609C128.884 30.0425 129.925 32.6252 130.969 35.2073C128.898 35.2055 126.827 35.2073 124.757 35.2073ZM138.864 41.7508C138.306 41.2254 138.024 40.4916 137.715 39.8086C135.215 33.9099 132.701 28.0199 130.194 22.1261C129.458 22.1247 128.723 22.1261 127.99 22.1261C125.668 27.9045 123.346 33.6809 121.029 39.4607C120.722 40.2566 120.364 41.052 119.792 41.6956C119.348 42.1759 118.651 42.2154 118.043 42.241C118.051 42.6283 118.049 43.0141 118.053 43.4028C120.371 43.2843 122.695 43.2394 125.012 43.4316C125.01 43.0308 125.012 42.6312 125.018 42.2321C124.372 42.2059 123.69 42.2822 123.079 42.0454C122.477 41.7279 122.54 40.9185 122.73 40.3689C123.159 39.2299 123.592 38.0944 124.012 36.952C126.595 36.9504 129.176 36.9504 131.759 36.952C132.204 38.1622 132.763 39.3328 133.13 40.5706C133.186 41.0459 133.474 41.7875 132.913 42.0631C132.312 42.2455 131.663 42.1454 131.045 42.2337C131.042 42.6224 131.04 43.0115 131.042 43.4016C134.221 43.2538 137.402 43.2704 140.582 43.4028C140.58 43.0174 140.58 42.6328 140.584 42.2488C140.001 42.1381 139.33 42.1744 138.864 41.7508Z" fill="#001427"/>
<path d="M36.634 57.964C35.8785 58.1189 35.1021 58.0869 34.3375 58.0971C34.3292 56.7017 34.3248 55.3047 34.3581 53.9074C34.3508 53.6923 34.3946 53.3811 34.6694 53.3699C35.4727 53.2243 36.3687 53.3288 37.0505 53.8058C37.7809 54.3376 37.9723 55.3188 37.9178 56.1719C37.8737 56.939 37.3982 57.7363 36.634 57.964ZM39.8771 61.312C39.0931 60.3666 38.334 59.3978 37.6719 58.3631C38.1924 58.0687 38.7302 57.7694 39.1129 57.2969C39.9954 56.272 40.0342 54.5866 39.1097 53.5767C38.422 52.8019 37.3471 52.5106 36.3398 52.5288C34.5313 52.5533 32.7226 52.5573 30.9141 52.4966C30.8914 52.7229 30.8714 52.9497 30.8516 53.1788C31.3469 53.2804 31.8797 53.2848 32.3355 53.5249C32.6496 53.7512 32.5678 54.1942 32.6027 54.5317C32.6134 56.9052 32.6301 59.2811 32.5705 61.6535C32.5311 62.0428 32.5905 62.578 32.1867 62.7988C31.7643 62.9571 31.3085 62.9906 30.8682 63.0709C30.8702 63.2968 30.8745 63.5249 30.8818 63.7544C32.627 63.7026 34.3721 63.6981 36.1168 63.7577C36.1379 63.5263 36.1558 63.2957 36.1724 63.0662C35.6019 62.8915 34.6876 63.0782 34.4146 62.4117C34.2732 61.2715 34.3503 60.1138 34.3399 58.9674C34.9851 59.0439 35.8934 58.7382 36.3096 59.3961C37.1202 60.5607 37.8386 61.8009 38.7834 62.8652C39.7628 63.944 41.3663 63.7657 42.6846 63.7771C42.727 63.5547 42.7668 63.3355 42.8064 63.1147C42.211 62.9797 41.5535 62.9382 41.055 62.5482C40.6012 62.1976 40.2473 61.7422 39.8771 61.312Z" fill="#001427"/>
<path d="M101.512 54.6564C102.236 54.7187 102.47 53.777 102.303 53.2256C102.18 52.672 101.469 52.7309 101.059 52.887C99.9652 53.0755 100.525 54.8998 101.512 54.6564Z" fill="#001427"/>
<path d="M96.7141 62.4674C96.2559 62.1652 96.2297 61.562 96.2007 61.0691C96.1814 59.8662 96.1854 58.6602 96.2167 57.4569C96.9782 57.4489 97.741 57.4631 98.5048 57.4727C98.564 57.0811 98.6323 56.6912 98.7069 56.3032C97.8804 56.351 97.0562 56.381 96.2297 56.3792C96.2081 55.4894 96.2935 54.6038 96.2963 53.7156C95.7169 53.9435 95.2211 54.3293 94.6758 54.6223C94.661 55.202 94.6946 55.784 94.6531 56.3643C94.3321 56.5249 93.9718 56.5826 93.6285 56.6756C93.5733 56.9062 93.5232 57.1398 93.4766 57.3738C93.8699 57.4044 94.2632 57.4329 94.6576 57.4716C94.6992 58.9733 94.6064 60.477 94.6821 61.9769C94.7094 62.5903 94.9388 63.2358 95.467 63.5915C96.3299 64.1607 97.548 64.0055 98.3403 63.3816C98.6733 63.1675 98.6505 62.7395 98.7382 62.3991C98.1064 62.6417 97.3351 62.8516 96.7141 62.4674Z" fill="#001427"/>
<path d="M60.3104 62.4475C59.8647 62.1345 59.8556 61.5346 59.8283 61.0472C59.8101 59.8497 59.8118 58.6511 59.8454 57.4529C60.6047 57.4518 61.3668 57.4631 62.1273 57.4727C62.1853 57.0807 62.2554 56.6905 62.3293 56.3036C61.5063 56.3503 60.6815 56.3799 59.8573 56.3799C59.8454 55.4894 59.9012 54.5994 59.9274 53.7111C59.3485 53.9508 58.8402 54.3214 58.2978 54.6282C58.2886 55.2141 58.3325 55.8033 58.2676 56.3855C57.9437 56.5193 57.5971 56.5815 57.259 56.666C57.2009 56.9002 57.148 57.1376 57.0996 57.3755C57.4901 57.4069 57.8862 57.412 58.2721 57.4909C58.3917 59.2043 58.1122 60.9472 58.4173 62.6457C58.8721 64.2405 61.1875 64.3003 62.1609 63.1777C62.3043 62.9438 62.2901 62.649 62.3538 62.3895C61.7203 62.657 60.9274 62.8529 60.3104 62.4475Z" fill="#001427"/>
<path d="M102.279 61.964C102.263 60.0118 102.273 58.0572 102.27 56.1044C101.407 56.3745 100.517 56.5631 99.6178 56.6598C99.5752 56.8243 99.5421 56.99 99.5131 57.1583C99.903 57.3718 100.457 57.4742 100.646 57.9256C100.726 58.6053 100.659 59.2963 100.679 59.9809C100.651 60.8923 100.748 61.8179 100.574 62.7177C100.242 62.9443 99.8239 62.9652 99.4494 63.0705C99.4482 63.2993 99.4539 63.531 99.4704 63.7627C100.795 63.6938 102.121 63.7018 103.445 63.7531C103.472 63.5226 103.499 63.2931 103.523 63.0637C103.175 62.9778 102.804 62.9563 102.484 62.786C102.248 62.5823 102.3 62.239 102.279 61.964Z" fill="#001427"/>
<path d="M44.6526 59.098C44.7138 58.4292 44.8972 57.7052 45.4486 57.271C45.9449 56.8703 46.7137 56.9357 47.1689 57.3677C47.634 57.7673 47.8221 58.3762 47.9242 58.9597C46.8396 59.1004 45.743 59.1066 44.6526 59.098ZM47.4333 56.2033C45.7299 55.8602 43.8496 56.9248 43.3439 58.6057C42.8381 60.2155 43.1327 62.2657 44.5417 63.3362C45.9892 64.3761 48.0685 63.9208 49.3102 62.7681C49.5989 62.5269 49.5543 62.1182 49.5989 61.7841C48.6906 62.3846 47.5666 62.7626 46.4845 62.4415C45.4015 62.1672 44.6849 61.0959 44.6511 60.0076C46.3035 59.9182 47.9664 59.8795 49.6019 59.6036C49.652 59.4361 49.7034 59.2712 49.754 59.1055C49.3876 58.7987 49.3941 58.2989 49.2315 57.8855C48.9538 57.0791 48.2868 56.3767 47.4333 56.2033Z" fill="#001427"/>
<path d="M54.3793 59.4149C53.6672 59.061 52.589 58.8019 52.4945 57.8616C52.4341 57.0385 53.4092 56.6223 54.0907 56.8896C54.8366 57.0432 55.0368 57.8463 55.1646 58.4871C55.3694 58.4764 55.5757 58.4655 55.7827 58.4535C55.839 57.7627 55.9057 57.0721 56.0013 56.3856C55.0763 56.2355 54.1303 56.0376 53.1916 56.1936C52.484 56.3033 51.7795 56.6624 51.3924 57.2845C50.9108 58.0331 50.9866 59.1088 51.6294 59.7418C52.3456 60.5073 53.4226 60.7241 54.2519 61.3239C54.7608 61.6461 54.9136 62.4721 54.434 62.8819C53.9284 63.2723 53.2082 63.1763 52.6619 62.9281C52.0147 62.594 51.7553 61.866 51.506 61.2312C51.2832 61.3024 51.0598 61.3771 50.8379 61.4516C50.9032 62.1715 51.023 62.8881 51.2101 63.5865C52.537 64.0118 54.115 64.1439 55.3269 63.3317C56.0729 62.8501 56.4322 61.8829 56.1865 61.0298C55.9617 60.1862 55.1208 59.74 54.3793 59.4149Z" fill="#001427"/>
<path d="M67.2001 62.2978C66.7903 62.7583 66.031 62.8521 65.4965 62.5573C64.9575 62.2733 64.7662 61.4896 65.126 60.996C65.8153 60.6227 66.5899 60.4377 67.3259 60.1753C67.2872 60.8777 67.4329 61.6239 67.2001 62.2978ZM68.8081 62.2693C68.7204 60.9506 68.9361 59.6237 68.8132 58.3039C68.7176 57.4034 68.1433 56.5149 67.2462 56.2481C66.2478 55.915 65.2592 56.4709 64.3894 56.904C63.7815 57.1608 63.7109 57.8923 63.5237 58.4437C63.7423 58.5651 63.9625 58.6805 64.1874 58.7928C64.4623 58.3323 64.6342 57.7892 65.0286 57.4125C65.8841 56.9769 67.2098 57.4232 67.3282 58.4615C67.3629 58.8279 67.504 59.4274 67.0305 59.5646C65.9502 60.0017 64.7918 60.2009 63.7138 60.6427C62.9357 61.7388 63.4326 63.5062 64.7554 63.8937C65.6895 64.0167 66.4989 63.3986 67.2764 62.9717C67.4403 63.2756 67.5416 63.6814 67.9048 63.8146C68.6458 64.1079 69.4661 63.7784 70.066 63.3223C70.0961 63.0935 70.1263 62.8652 70.1588 62.6375C69.7165 62.6575 68.9515 62.8728 68.8081 62.2693Z" fill="#001427"/>
<path d="M84.0955 56.2991C83.4848 56.6132 83.0408 57.1522 82.561 57.6276C82.5627 57.1204 82.5951 56.6144 82.6099 56.1085C81.7932 56.4353 80.9411 56.6677 80.0742 56.8149C80.0543 56.9365 80.0139 57.1777 79.9939 57.2996C80.4112 57.5426 81.1005 57.71 81.0629 58.3168C81.0896 59.5855 81.0748 60.8548 81.039 62.1224C81.0065 62.3683 81.0504 62.704 80.788 62.8379C80.5068 62.9671 80.1937 62.9944 79.8983 63.0622C79.8949 63.295 79.8966 63.5267 79.9006 63.7595C81.3509 63.6803 82.8029 63.7157 84.2532 63.7617C84.2885 63.5256 84.3187 63.2888 84.35 63.0531C83.8189 62.9291 83.1734 63.0171 82.7318 62.6551C82.5075 61.8965 82.6509 61.0763 82.5997 60.293C82.6373 59.4757 82.3612 58.4398 83.1387 57.8768C83.7506 57.3007 84.5241 57.9257 85.066 58.2804C85.3557 57.7385 85.8202 57.1631 85.6944 56.5165C85.3011 56.069 84.6004 56.044 84.0955 56.2991Z" fill="#001427"/>
<path d="M90.2616 62.272C89.7255 62.9413 88.4288 62.881 88.0816 62.0375C87.9126 61.6993 88.0264 61.3282 88.1255 60.9896C88.8569 60.6714 89.6145 60.4204 90.3743 60.1762C90.3544 60.8713 90.4654 61.5974 90.2616 62.272ZM91.8531 62.2596C91.762 60.9413 91.992 59.6155 91.8594 58.2979C91.7649 57.4055 91.1968 56.527 90.3129 56.2539C89.3202 55.9089 88.3298 56.4603 87.4601 56.8898C86.8374 57.1453 86.7583 57.8824 86.5682 58.4447C86.7901 58.5654 87.0138 58.6803 87.2392 58.7953C87.4919 58.3446 87.6775 57.843 88.0247 57.4532C88.8654 56.9414 90.2531 57.4077 90.3772 58.4602C90.3937 58.8142 90.5639 59.3925 90.1148 59.5472C89.0305 59.9953 87.8625 60.2 86.7702 60.6305C85.9824 61.724 86.4754 63.5031 87.801 63.892C88.7356 64.0165 89.5479 63.4013 90.3208 62.9704C90.4831 63.2755 90.5895 63.6768 90.9481 63.814C91.6966 64.1066 92.5196 63.7782 93.1213 63.3148C93.1469 63.0871 93.1731 62.861 93.1992 62.6362C92.7524 62.6625 91.9903 62.8715 91.8531 62.2596Z" fill="#001427"/>
<path d="M106.163 59.0961C106.239 58.4562 106.394 57.7652 106.904 57.3251C107.39 56.8744 108.195 56.9138 108.673 57.3554C109.146 57.7549 109.345 58.3704 109.436 58.9622C108.35 59.0961 107.254 59.1103 106.163 59.0961ZM111.277 59.1045C110.899 58.7857 110.907 58.2712 110.736 57.8479C110.464 57.0974 109.861 56.4413 109.076 56.2335C108.092 55.9784 107.021 56.2546 106.187 56.8089C105.157 57.5101 104.628 58.7772 104.634 59.9992C104.604 61.2993 105.084 62.7269 106.228 63.4497C107.677 64.34 109.627 63.876 110.827 62.7707C111.12 62.5295 111.072 62.1184 111.111 61.7808C110.208 62.3927 109.073 62.7605 107.99 62.4383C106.912 62.1606 106.207 61.0909 106.166 60.0119C107.818 59.9145 109.483 59.8809 111.118 59.6019C111.17 59.4363 111.222 59.2702 111.277 59.1045Z" fill="#001427"/>
<path d="M78.1342 62.5218C77.8809 62.3073 77.9578 61.9446 77.9395 61.6556C77.9674 59.8746 77.9339 58.0924 78.0175 56.3123C77.0101 56.4535 75.9929 56.4902 74.9786 56.5231C74.9484 56.7387 74.9194 56.9551 74.8955 57.1732C75.3355 57.2644 75.8028 57.283 76.216 57.4778C76.4864 57.7275 76.3743 58.1408 76.4061 58.4686C76.364 59.5967 76.4727 60.7375 76.3435 61.8599C75.829 62.5856 74.7464 62.8178 73.9353 62.4883C73.4321 62.2799 73.1908 61.7272 73.2022 61.2094C73.1578 59.5591 73.1629 57.904 73.2927 56.2556C72.3865 56.4108 71.469 56.4824 70.552 56.5264C70.5156 56.7436 70.4803 56.962 70.4473 57.1823C70.8497 57.3057 71.5447 57.2232 71.6198 57.7766C71.7644 59.2708 71.5179 60.7796 71.7126 62.2693C71.8122 63.119 72.5242 63.8203 73.3792 63.8919C74.5164 64.1009 75.5102 63.3716 76.3589 62.7195C76.397 63.1464 76.4238 63.5726 76.4762 63.9995C77.3567 63.8185 78.2526 63.6029 79.0495 63.1782C79.1081 62.9574 79.1559 62.7371 79.1952 62.5138C78.8406 62.5218 78.4865 62.5674 78.1342 62.5218Z" fill="#001427"/>
</g>
<defs>
<clipPath id="clip0_2892_320">
<rect width="140.585" height="64" fill="white"/>
</clipPath>
</defs>
</svg>
